<?xml version="1.0" standalone="no"?>
<!DOCTYPE svg PUBLIC "-//W3C//DTD SVG 20010904//EN"
 "http://www.w3.org/TR/2001/REC-SVG-20010904/DTD/svg10.dtd">
<svg version="1.0" xmlns="http://www.w3.org/2000/svg"
 width="1200.000000pt" height="1200.000000pt" viewBox="0 0 1200.000000 1200.000000"
 preserveAspectRatio="xMidYMid meet">
<metadata>
Created by potrace 1.16, written by Peter Selinger 2001-2019
</metadata>
<g transform="translate(0.000000,1200.000000) scale(0.100000,-0.100000)"
fill="#000000" stroke="none">
<path d="M6176 11470 c-38 -48 -46 -45 140 -45 96 0 174 2 174 5 0 3 -9 16
-19 29 -18 23 -23 24 -150 25 -106 1 -135 -2 -145 -14z"/>
<path d="M5745 10209 c-514 -41 -994 -155 -1450 -344 -1416 -588 -2409 -1826
-2654 -3310 -43 -257 -54 -410 -54 -705 0 -312 19 -534 69 -780 177 -878 580
-1643 1189 -2256 378 -381 730 -634 1205 -868 893 -441 1888 -572 2870 -380
1362 267 2517 1140 3133 2371 229 456 387 1013 431 1523 53 604 -25 1269 -209
1800 -277 794 -786 1504 -1456 2026 -596 466 -1365 788 -2114 888 -324 43
-685 56 -960 35z m595 -104 c563 -31 1267 -242 1774 -534 49 -28 90 -51 92
-51 5 0 109 -66 209 -133 493 -331 935 -768 1218 -1203 378 -582 582 -1188
657 -1947 16 -165 14 -576 -5 -767 -33 -329 -100 -645 -206 -968 -86 -261
-194 -503 -336 -757 -77 -136 -265 -414 -370 -545 -56 -69 -102 -135 -104
-145 -3 -11 -16 -25 -30 -32 -15 -7 -61 -50 -102 -96 -161 -177 -470 -439
-702 -596 -686 -463 -1408 -704 -2250 -751 -533 -30 -1143 70 -1685 277 -576
220 -1094 562 -1535 1014 -233 239 -377 420 -543 679 -370 579 -581 1177 -674
1910 -20 162 -17 686 6 870 100 816 395 1514 913 2165 100 126 444 475 578
586 213 178 481 362 710 489 72 40 144 83 162 96 17 13 38 24 46 24 8 0 89 32
178 71 379 164 813 281 1214 325 273 30 479 35 785 19z"/>
<path d="M5681 9969 c-52 -5 -98 -12 -101 -16 -4 -5 -2 -66 5 -138 6 -71 9
-133 6 -136 -3 -4 -22 -9 -42 -12 -44 -6 -45 -5 -54 154 -4 57 -8 109 -10 115
-4 13 -66 6 -242 -27 -132 -25 -125 -11 -89 -175 41 -188 41 -170 -7 -182 -23
-6 -43 -10 -45 -8 -1 2 -16 72 -32 156 -17 85 -32 156 -35 158 -9 9 -321 -81
-338 -98 -5 -4 1 -34 13 -66 26 -73 60 -177 60 -185 0 -5 -65 -39 -75 -39 -2
0 -23 58 -47 130 -38 117 -44 129 -63 124 -67 -20 -345 -141 -345 -150 0 -2
23 -48 50 -103 28 -55 50 -104 50 -110 0 -13 -8 -17 -48 -26 l-32 -7 -45 97
c-25 53 -42 101 -39 107 22 36 -208 -90 -416 -227 -147 -97 -351 -251 -367
-278 -4 -7 0 -7 10 2 15 12 22 8 56 -30 22 -24 45 -55 52 -67 12 -21 11 -26
-11 -43 -14 -10 -30 -19 -36 -19 -6 0 -33 25 -60 56 -43 51 -46 58 -35 78 15
24 -39 -25 -196 -179 -62 -60 -113 -115 -113 -120 0 -6 36 -44 80 -84 44 -40
80 -78 80 -86 0 -7 -14 -24 -31 -36 l-31 -22 -78 78 c-43 42 -82 76 -88 74
-18 -7 -182 -212 -176 -221 3 -5 30 -26 60 -49 30 -22 54 -45 54 -53 0 -13
-41 -56 -54 -56 -4 0 -32 20 -63 45 l-55 45 -32 -42 c-45 -59 -156 -235 -156
-247 0 -5 28 -26 63 -47 105 -63 105 -63 64 -118 -14 -19 -17 -18 -97 33 -45
28 -84 51 -85 49 -7 -7 -155 -295 -155 -302 0 -4 25 -18 56 -32 52 -23 56 -26
49 -52 -11 -47 -28 -56 -64 -38 -76 40 -79 40 -100 -10 -42 -94 -112 -294
-107 -303 4 -5 20 -12 36 -16 39 -9 44 -18 30 -61 -13 -37 -10 -37 -77 -18
-28 8 -31 1 -80 -186 -20 -76 -37 -164 -38 -201 -1 -36 -9 -81 -18 -100 -25
-55 -64 -320 -50 -342 9 -15 4 -68 -8 -83 -5 -6 -12 -98 -16 -203 l-6 -191 47
0 47 0 -3 -42 c-3 -42 -4 -43 -38 -44 l-35 0 3 -134 c2 -102 6 -136 16 -142
19 -11 31 -79 15 -89 -13 -8 -9 -39 27 -241 l16 -88 38 6 c37 6 38 5 44 -30 4
-20 8 -39 9 -43 1 -4 -13 -11 -32 -15 -31 -9 -33 -11 -27 -41 11 -59 79 -272
88 -275 5 -2 18 -22 29 -44 15 -29 17 -43 9 -53 -8 -10 -1 -37 30 -112 130
-309 276 -581 428 -798 165 -237 448 -560 479 -548 19 8 63 -35 63 -63 0 -25
68 -90 244 -233 168 -135 256 -195 288 -197 38 -3 78 -30 78 -53 0 -11 18 -28
48 -45 26 -15 74 -43 107 -63 172 -102 489 -247 700 -320 102 -35 373 -114
425 -124 271 -51 347 -62 482 -74 163 -14 168 -14 205 -1 19 6 21 11 13 31 -7
19 -6 23 6 18 8 -3 14 -2 13 3 -4 21 2 34 15 34 8 0 17 7 20 16 8 20 26 9 26
-17 0 -29 14 -23 32 13 22 48 21 53 -14 54 l-32 0 1 200 c1 109 2 203 2 207 1
5 20 7 44 5 l42 -3 -4 -193 c-2 -105 -1 -192 3 -192 3 0 17 24 30 53 13 30 37
73 55 97 17 24 31 49 31 57 0 7 5 13 10 13 6 0 5 6 -2 14 -7 8 -16 12 -20 9
-5 -2 -8 1 -8 7 0 7 -6 10 -13 7 -45 -17 37 121 101 170 19 14 32 21 28 15 -5
-8 4 -12 29 -12 55 0 75 15 75 55 0 19 5 35 11 35 5 0 8 4 5 9 -3 4 6 13 20
20 19 8 25 17 21 30 -3 13 2 21 14 24 20 5 27 27 9 27 -5 0 -10 -5 -10 -12 0
-6 -3 -8 -6 -5 -4 4 0 17 9 30 9 13 19 40 22 61 4 20 11 36 16 36 5 0 9 9 9
21 0 11 -4 18 -9 15 -5 -4 -4 5 2 19 7 14 18 23 25 20 9 -3 10 0 2 15 -7 13
-7 21 2 26 8 5 7 9 -4 13 -15 5 -15 10 -2 46 7 22 14 50 14 62 0 17 8 23 40
28 45 8 63 35 75 115 4 25 9 53 11 62 4 22 -3 23 -23 3 -8 -9 -18 -13 -21 -10
-4 3 0 10 7 14 7 5 15 23 17 40 2 19 0 30 -6 26 -12 -7 -24 39 -17 65 3 13 0
20 -8 20 -8 0 -11 8 -8 20 3 11 0 27 -8 36 -7 8 -8 14 -3 13 23 -4 24 3 6 29
-10 15 -22 40 -26 55 -4 15 -11 25 -16 22 -6 -3 -10 3 -10 14 0 36 23 71 49
77 52 12 61 16 56 24 -3 5 -1 11 5 15 5 3 10 -2 11 -12 0 -16 1 -16 8 1 7 19
8 18 16 -5 l8 -24 4 28 c10 63 -70 258 -163 398 -41 62 -100 119 -122 119 -18
0 -21 -45 -8 -115 8 -38 26 -134 42 -212 15 -79 26 -144 23 -147 -2 -2 -19 -7
-37 -11 -23 -5 -33 -3 -36 7 -2 7 -18 81 -36 163 -18 83 -34 151 -35 153 -2 2
-23 -25 -47 -60 -42 -61 -43 -65 -43 -143 l0 -80 -37 -3 c-36 -3 -38 -2 -38
27 0 16 -4 32 -8 35 -4 2 -27 -13 -50 -35 l-42 -41 0 -84 c0 -82 -1 -84 -24
-84 -13 0 -31 -3 -40 -6 -13 -5 -16 2 -16 45 0 28 -3 51 -6 51 -16 0 -137 -97
-198 -158 -67 -69 -76 -92 -34 -92 23 0 23 0 -5 -230 l-12 -95 -33 -3 c-23 -2
-34 2 -38 13 -4 9 1 75 10 147 26 195 12 184 -50 -42 -20 -69 -47 -156 -61
-193 -25 -67 -112 -207 -173 -278 -21 -24 -38 -63 -53 -120 l-23 -84 -35 0
c-37 0 -37 -1 -25 77 l7 45 -53 -13 c-67 -18 -157 -18 -233 0 -36 9 -64 11
-71 6 -6 -6 -26 -2 -50 9 -21 11 -65 27 -97 36 -47 13 -71 28 -119 75 -53 51
-64 58 -92 53 -18 -2 -39 1 -50 10 -19 14 -19 15 3 50 18 30 20 40 11 58 -36
66 -60 166 -60 246 0 46 -3 83 -7 83 -5 0 -37 -44 -73 -96 -36 -53 -68 -98
-73 -101 -13 -8 -67 18 -67 32 0 7 8 23 19 36 10 13 57 86 106 163 77 123 88
145 92 197 l6 57 -36 -7 c-32 -8 -126 1 -145 13 -5 3 -61 -58 -126 -135 -64
-76 -120 -139 -124 -139 -10 1 -52 37 -52 45 0 8 181 231 211 260 l20 20 -30
25 c-83 68 -100 80 -111 80 -6 0 -68 -55 -136 -122 l-124 -121 -25 23 c-14 13
-25 28 -25 34 0 6 58 69 129 140 112 112 132 128 145 117 11 -9 16 -10 16 -2
0 17 31 13 45 -6 7 -9 21 -17 31 -18 10 -1 29 -7 42 -13 29 -16 44 -8 111 63
51 54 53 58 48 101 -2 25 -7 48 -11 51 -3 4 -39 -26 -78 -65 l-73 -72 -30 31
-30 31 93 87 93 88 -54 27 c-29 14 -72 27 -95 29 -24 3 -51 12 -60 21 -10 9
-22 16 -26 16 -4 0 -33 -21 -63 -47 -53 -46 -56 -47 -70 -28 -28 39 -27 63 4
89 15 14 33 26 39 26 6 0 17 7 24 15 10 13 10 19 -3 33 -9 10 -28 43 -42 75
-15 31 -30 57 -33 57 -4 0 -40 -20 -80 -45 -40 -25 -76 -45 -80 -45 -7 0 -32
57 -32 73 0 3 35 30 78 58 42 29 79 53 81 55 5 4 -21 107 -31 120 -5 7 -3 14
7 18 17 6 20 41 5 51 -6 3 -10 15 -10 26 0 26 -3 25 -192 -62 -159 -73 -158
-73 -162 -8 -1 31 1 32 149 101 180 83 185 85 185 64 0 -9 3 -16 8 -16 4 0 7
42 7 94 0 52 3 89 7 83 5 -8 8 -6 8 5 0 9 3 24 7 34 4 12 3 15 -6 10 -10 -6
-10 -4 -2 10 17 31 29 112 19 122 -6 6 -2 17 12 30 18 16 21 27 15 49 -4 15
-6 64 -6 107 1 55 -2 82 -11 87 -9 6 -4 9 15 9 33 0 42 17 33 66 l-7 35 -72
-6 c-40 -4 -139 -13 -221 -21 -82 -8 -155 -14 -163 -14 -10 0 -13 11 -11 43
l3 42 75 8 c137 14 403 47 406 49 1 2 5 25 9 51 l8 49 -54 -3 -54 -3 -3 48 -3
47 73 -6 73 -7 -140 141 -140 142 -9 -33 c-5 -18 -10 -34 -11 -35 -1 -2 -55 4
-121 12 -65 8 -141 15 -168 15 l-49 0 6 41 c3 23 9 45 14 50 4 4 51 1 103 -7
52 -8 122 -17 155 -21 l60 -5 -35 34 c-19 19 -198 196 -397 393 l-362 358 -33
-16 c-36 -18 -46 -10 -27 24 10 19 9 25 -7 36 -10 7 -24 11 -31 8 -8 -2 -67
16 -134 40 -66 25 -128 45 -138 45 -9 0 -25 6 -34 13 -14 10 -15 17 -5 50 9
30 16 37 38 37 19 0 26 5 27 22 1 13 7 24 13 26 5 2 10 9 10 16 0 18 35 48 45
39 4 -5 5 2 2 15 -4 16 1 27 18 38 13 8 25 24 28 34 3 11 12 20 20 20 8 0 76
-31 152 -70 76 -38 141 -70 145 -70 4 0 14 19 23 42 19 48 13 61 -30 60 -15 0
-78 27 -139 59 -62 32 -116 59 -121 59 -6 0 -15 -10 -22 -22 l-12 -23 5 24 c3
15 -1 29 -11 36 -14 10 -13 18 12 73 18 41 31 59 41 55 9 -3 14 2 14 14 0 20
48 78 88 105 12 8 24 25 27 36 2 11 9 30 15 41 8 16 8 21 -1 21 -8 0 -8 4 -1
13 6 7 13 28 14 46 1 18 8 36 15 38 7 3 13 11 13 19 0 8 5 14 10 14 6 0 18 16
27 35 9 19 23 34 30 33 7 -2 19 8 26 22 8 14 19 24 26 22 6 -1 16 9 21 23 5
14 14 25 19 25 6 0 13 17 17 38 7 41 19 62 58 107 41 46 45 52 40 58 -3 2 9 7
26 10 16 4 29 11 28 16 -3 9 27 39 96 97 16 14 26 27 23 30 -6 7 31 82 50 102
7 7 13 17 13 20 0 11 58 34 69 28 5 -3 19 6 30 21 16 22 20 23 16 8 -5 -16 -3
-16 6 3 7 12 18 22 25 22 7 0 16 5 20 12 5 8 1 9 -12 5 -18 -7 -18 -7 0 8 11
8 27 15 36 15 25 0 50 33 44 57 -5 17 3 28 35 51 22 16 37 32 34 36 -3 3 1 6
10 6 10 0 17 5 17 11 0 6 6 9 14 6 8 -3 22 3 31 13 11 13 27 17 48 15 29 -4
30 -3 14 9 -16 12 -16 14 -1 20 21 8 32 7 17 -2 -8 -5 -8 -12 3 -26 12 -17 14
-17 20 -3 4 12 13 15 30 11 18 -5 24 -2 24 11 0 9 -4 13 -10 10 -5 -3 -10 -1
-10 4 0 10 13 15 32 13 19 -3 28 27 16 53 -11 24 -10 29 7 42 35 24 65 27 81
7 10 -13 17 -15 20 -7 9 19 52 63 64 63 6 0 9 4 6 9 -3 5 6 12 19 15 14 4 23
11 20 16 -3 6 4 10 17 10 81 0 99 0 123 3 12 1 19 -3 17 -11 -1 -8 1 -11 6 -8
5 3 26 -10 47 -29 26 -25 35 -39 28 -47 -15 -21 0 -143 20 -155 6 -4 7 -1 2 8
-8 12 -6 12 8 0 10 -8 15 -16 12 -19 -2 -3 9 -20 26 -39 16 -19 32 -47 36 -63
3 -16 13 -37 24 -48 18 -20 22 -58 8 -77 -4 -6 -6 -27 -4 -47 3 -26 -1 -40
-11 -46 -9 -5 -15 -12 -15 -15 3 -21 -3 -25 -38 -25 -25 -1 -41 4 -45 14 -3 8
-17 14 -31 14 -15 0 -35 5 -46 10 -10 6 -19 8 -19 5 0 -3 47 -81 105 -174 58
-92 105 -173 105 -180 0 -6 -11 -11 -24 -11 -13 0 -31 -3 -39 -6 -10 -3 -42
38 -107 143 -51 81 -100 154 -108 160 -19 16 -52 65 -52 78 0 6 14 18 30 27
32 18 38 45 18 67 -11 11 -10 12 0 6 10 -5 13 -2 10 11 -2 11 -9 18 -15 17 -9
-2 -19 42 -26 108 -1 9 -7 16 -13 16 -7 0 -10 -7 -7 -16 3 -9 -9 -1 -26 17
-41 43 -39 29 4 -37 35 -53 42 -70 28 -72 -5 0 -15 -2 -23 -4 -50 -14 -53 -12
-125 102 -38 61 -76 114 -84 118 -22 9 -38 -12 -23 -33 46 -66 58 -118 32
-140 -13 -10 -13 -11 3 -6 21 8 22 -6 2 -32 -13 -16 -14 -16 -9 -1 3 9 1 17
-5 17 -15 0 -14 -43 1 -58 9 -9 9 -12 -1 -12 -9 0 -10 -4 -3 -12 5 -7 8 -23 6
-34 -3 -17 3 -23 27 -28 17 -3 36 -3 43 1 6 4 5 -1 -2 -10 -8 -9 -22 -19 -33
-22 -27 -9 -43 -43 -29 -60 7 -8 9 -19 5 -25 -3 -5 1 -13 9 -16 22 -8 20 -17
-6 -33 -21 -13 -22 -13 -9 3 21 25 4 33 -18 8 -17 -21 -19 -21 -32 -5 -12 15
-12 16 3 11 22 -9 31 2 16 19 -8 10 -8 17 0 25 15 15 16 32 2 23 -6 -4 -10 5
-10 21 0 36 -10 26 -11 -12 -3 -52 -9 -66 -24 -54 -10 8 -19 8 -35 0 -12 -6
-23 -10 -24 -8 -78 103 -182 223 -195 223 -35 0 -18 -35 68 -145 68 -86 87
-117 79 -127 -8 -10 -6 -13 6 -13 9 0 16 -5 16 -10 0 -6 5 -9 11 -8 16 4 23
-19 7 -25 -7 -2 -3 -2 10 0 19 3 23 0 17 -16 -4 -14 -1 -19 11 -17 12 1 17 -7
18 -27 1 -16 7 -31 13 -35 6 -4 11 -18 12 -32 0 -14 3 -50 7 -81 4 -41 3 -59
-8 -70 -25 -26 -39 -67 -25 -76 8 -5 4 -9 -11 -13 -21 -5 -16 -13 66 -97 49
-51 86 -96 83 -100 -3 -5 -18 -16 -32 -25 l-26 -17 -108 102 -108 101 -27 -32
c-14 -18 -34 -32 -43 -32 -11 0 -17 -8 -17 -21 0 -15 -5 -19 -15 -15 -9 3 -15
0 -15 -9 0 -7 -5 -17 -12 -21 -8 -5 -9 -1 -4 12 5 14 4 16 -5 7 -15 -15 -3
-34 16 -26 10 3 13 1 10 -9 -5 -13 83 -92 274 -245 14 -11 13 -16 -12 -38 -15
-14 -31 -25 -35 -25 -4 0 -71 52 -149 115 -136 110 -164 127 -178 105 -4 -6
-10 -8 -15 -5 -10 6 -18 -58 -9 -82 4 -10 1 -28 -7 -41 -8 -12 -12 -26 -10
-31 3 -5 -3 -19 -14 -31 l-20 -23 32 -24 c18 -13 67 -46 110 -74 43 -29 78
-56 78 -61 0 -14 -31 -58 -42 -58 -5 0 -72 41 -150 91 -77 49 -145 92 -152 95
-6 2 -19 -8 -28 -24 -16 -27 -16 -30 0 -46 12 -14 14 -20 5 -23 -8 -3 -11 -14
-7 -28 4 -18 1 -25 -15 -30 -12 -3 -21 -11 -21 -16 0 -6 5 -7 10 -4 23 14 8
-14 -16 -30 -14 -9 -22 -20 -18 -25 5 -4 54 -32 109 -60 55 -29 101 -54 103
-55 5 -4 -22 -60 -32 -67 -5 -3 -85 32 -178 78 -92 46 -170 84 -173 84 -5 0
-35 -55 -35 -64 0 -3 18 -15 39 -26 40 -20 70 -49 39 -37 -27 10 -27 -3 -2
-28 13 -13 24 -33 24 -45 0 -11 4 -20 8 -20 4 0 26 -18 49 -39 22 -22 44 -37
47 -34 10 10 46 11 46 1 0 -5 5 -6 10 -3 6 3 10 1 10 -5 0 -6 8 -9 18 -6 26 9
137 -43 137 -64 0 -5 2 -9 5 -7 11 4 37 -28 33 -40 -3 -7 6 -17 18 -22 13 -4
22 -12 20 -17 -5 -10 3 -14 109 -56 62 -25 85 -39 84 -51 -1 -9 2 -14 7 -11 5
2 22 -2 38 -10 27 -14 31 -14 54 4 19 15 27 17 31 8 5 -11 7 -11 12 0 3 6 10
10 15 6 5 -3 12 3 15 13 4 10 22 32 40 50 19 18 34 37 34 43 0 6 5 8 10 5 6
-4 17 10 25 29 9 20 17 36 19 36 2 0 23 -9 47 -19 43 -19 43 -19 57 0 8 11 21
18 29 15 8 -3 12 -2 9 3 -3 5 6 20 20 34 13 14 27 35 29 46 6 31 14 41 41 51
13 5 24 17 24 25 0 9 5 13 10 10 6 -3 10 1 10 11 0 12 6 15 24 12 16 -3 23 -1
20 7 -3 6 3 18 13 26 17 13 17 13 3 -6 -12 -17 -12 -18 0 -7 8 7 15 16 16 20
0 4 6 20 13 37 10 24 14 26 22 15 7 -11 8 -8 3 11 -3 15 -1 30 5 34 6 3 8 12
4 18 -6 11 34 -24 116 -102 33 -31 36 -32 48 -15 7 10 13 23 13 29 0 6 -34 44
-75 84 -67 65 -77 72 -92 60 -13 -11 -15 -11 -9 -1 5 8 1 21 -10 33 -17 19
-17 22 6 67 14 26 28 49 33 50 4 2 5 8 1 13 -3 5 4 9 15 9 13 0 19 5 15 14 -3
8 19 38 55 74 34 33 61 55 61 49 0 -6 7 -2 16 9 8 10 12 13 9 6 -6 -11 -3 -12
14 -3 11 7 20 15 19 19 -1 4 2 15 7 25 6 14 10 15 19 5 6 -7 10 -12 9 -10 -1
3 13 18 30 34 18 17 26 28 20 24 -7 -4 -18 -4 -24 -1 -6 4 5 18 28 33 21 14
39 26 41 28 2 1 -4 16 -13 34 -16 30 -16 31 3 21 17 -9 20 -6 25 19 8 40 43
73 69 67 23 -6 53 17 43 33 -3 5 0 10 9 10 8 0 16 -5 18 -12 6 -16 85 9 98 31
5 9 10 11 10 4 0 -21 54 -23 110 -4 54 18 55 18 64 0 5 -11 15 -19 23 -19 24
0 73 30 73 45 0 11 6 12 23 6 12 -5 32 -5 44 0 15 5 23 4 27 -7 4 -10 11 -12
31 -4 28 11 34 2 50 -67 8 -38 5 -37 57 -21 l40 12 -7 44 -7 45 34 -7 c18 -4
50 -9 71 -13 l37 -6 -1 54 c0 30 -8 124 -18 209 -10 85 -16 158 -14 163 2 4
24 7 48 7 43 0 43 -1 50 -40 4 -21 4 -44 1 -49 -4 -5 0 -81 9 -168 8 -87 15
-163 15 -170 0 -7 -16 -15 -36 -19 -36 -7 -36 -7 -31 -47 7 -51 15 -58 60 -50
37 6 37 6 37 53 0 54 8 82 21 75 14 -9 59 7 59 21 0 7 6 11 13 8 8 -3 20 2 27
11 7 8 28 15 46 15 31 0 34 3 34 30 0 17 3 29 8 28 4 -2 26 5 50 15 31 12 42
23 42 38 0 19 4 20 41 14 31 -5 40 -4 38 7 -3 13 7 97 17 150 5 23 2 27 -18
26 -13 -1 -28 -5 -33 -9 -16 -12 -71 4 -97 27 -13 11 -29 19 -36 16 -7 -2 -12
6 -12 18 0 13 -5 20 -12 18 -9 -3 -14 -44 -18 -138 l-5 -134 -35 -7 c-19 -4
-36 -6 -38 -4 -2 2 -4 86 -5 187 l-2 183 55 5 c40 4 48 7 30 11 l-25 6 28 2
c23 1 27 5 27 31 0 21 5 30 16 30 11 0 15 6 11 20 -3 10 1 24 9 31 8 6 14 18
14 26 0 8 5 11 10 8 7 -4 10 6 8 28 -2 29 -5 33 -22 29 -19 -5 -20 -4 -6 14 8
10 10 16 6 12 -5 -4 -17 2 -27 14 -14 16 -19 37 -19 85 0 49 -3 63 -15 63 -13
0 -15 -22 -15 -140 0 -112 -3 -140 -14 -140 -7 0 -28 -3 -45 -6 l-31 -6 0 136
c0 75 -3 136 -7 137 -57 6 -179 5 -183 -1 -3 -5 2 -87 11 -182 8 -95 13 -176
10 -179 -3 -4 -22 -9 -42 -12 l-36 -5 -17 161 c-10 89 -20 165 -22 169 -3 4
-17 0 -32 -10 -14 -9 -23 -11 -19 -4 11 16 -5 15 -29 -3 -10 -8 -39 -14 -64
-14 -25 0 -39 3 -31 6 10 4 5 10 -15 18 -21 8 -31 9 -36 1 -4 -6 -8 1 -8 16 0
20 6 28 23 31 19 4 18 4 -5 6 -32 1 -34 -9 -18 -86 39 -187 49 -248 42 -254
-4 -4 -21 -10 -38 -13 -31 -7 -31 -7 -47 56 -9 35 -19 79 -22 98 -10 59 -35
139 -45 145 -6 4 -8 11 -5 16 11 18 -6 9 -31 -16 -24 -24 -82 -36 -69 -15 3 6
14 10 24 10 18 0 41 18 41 33 0 4 -5 5 -12 1 -13 -9 -128 -5 -143 4 -5 3 1 9
15 13 l25 7 -27 1 c-20 1 -26 5 -22 16 4 11 0 15 -17 15 -12 0 -19 -3 -16 -7
4 -3 2 -12 -4 -20 -8 -9 -8 -21 -1 -40 25 -70 95 -303 91 -307 -2 -2 -21 -6
-41 -10 l-36 -7 -54 161 c-29 88 -57 159 -63 156 -5 -2 -11 8 -12 23 -2 14 -4
37 -5 49 -3 19 5 27 36 40 30 12 41 13 44 4 8 -25 32 -39 56 -35 14 3 24 9 21
13 -3 5 18 10 45 12 53 3 69 -7 23 -15 -21 -4 -19 -4 7 -3 28 1 36 5 38 24 2
12 8 22 13 22 5 0 9 5 9 11 0 8 -4 8 -15 -1 -8 -6 -20 -8 -26 -4 -7 4 -9 3 -6
-4 5 -6 -12 -11 -46 -14 -46 -3 -53 -1 -55 16 -1 20 -21 38 -33 30 -4 -2 -10
0 -13 5 -11 16 14 23 32 9 15 -12 16 -11 3 5 -12 15 -11 20 4 37 10 11 13 20
8 20 -17 0 -34 58 -20 64 7 2 0 5 -15 5 -16 1 -28 5 -28 11 0 5 -6 9 -12 7 -8
-1 -12 7 -10 22 2 15 0 21 -7 16 -6 -3 -18 1 -27 10 -9 9 -19 14 -21 11 -3 -3
2 -13 11 -22 10 -9 15 -23 12 -30 -3 -8 -1 -27 5 -42 10 -25 12 -26 19 -7 8
19 9 19 9 -2 1 -12 -4 -25 -9 -28 -6 -4 -8 -16 -4 -28 6 -20 5 -21 -8 -4 -11
15 -18 16 -46 6 -18 -6 -34 -10 -36 -8 -2 2 -18 49 -36 104 -35 108 -50 135
-50 92 0 -17 -5 -27 -15 -27 -8 0 -15 -5 -15 -10 0 -7 6 -7 19 -1 15 9 20 7
25 -12 8 -32 7 -39 -4 -32 -5 3 -10 1 -10 -6 0 -7 -9 -5 -22 7 -13 11 -18 13
-11 3 10 -12 10 -18 1 -27 -9 -9 -8 -12 5 -12 9 0 17 -7 17 -16 0 -8 -5 -12
-10 -9 -6 3 -13 -1 -17 -10 -3 -10 0 -21 7 -25 7 -4 10 -14 8 -21 -3 -8 1 -22
10 -31 11 -13 12 -18 2 -18 -10 0 -10 -3 0 -15 7 -8 21 -15 31 -15 11 0 19 -7
19 -15 0 -8 9 -24 20 -35 11 -11 16 -20 10 -20 -5 0 -10 -11 -10 -25 0 -19 4
-23 17 -18 13 5 15 2 10 -12 -7 -16 -5 -16 9 -4 15 12 16 11 9 -11 -4 -14 -14
-32 -22 -40 -14 -13 -14 -13 -4 7 10 20 9 22 -5 16 -11 -4 -15 -3 -10 5 3 6 2
13 -3 17 -6 3 -8 -4 -6 -16 5 -23 -10 -49 -26 -49 -5 0 -9 6 -9 13 0 9 -13 11
-42 8 -40 -3 -42 -2 -28 14 14 17 13 17 -9 6 -13 -7 -21 -9 -17 -3 8 13 -19
23 -40 15 -12 -4 -15 -2 -12 8 3 8 -4 22 -16 32 -14 13 -17 20 -9 25 12 7 33
55 33 73 0 5 -6 9 -14 9 -9 0 -12 8 -8 25 2 14 0 25 -6 25 -6 0 -14 9 -17 20
-3 11 -12 20 -20 20 -12 0 -18 9 -25 35 -2 6 -18 20 -37 33 -18 13 -31 27 -28
33 4 5 1 8 -6 7 -6 -2 -14 3 -17 11 -3 9 0 11 8 6 8 -5 11 0 8 16 -1 13 -13
28 -25 34 -13 5 -23 13 -23 18 0 4 5 5 10 2 6 -3 10 -1 10 5 0 7 6 10 13 7 6
-2 11 -10 10 -16 -2 -6 1 -11 7 -11 5 0 7 13 4 28 -5 24 -1 30 23 42 15 7 31
13 36 12 4 -1 7 3 7 8 0 6 16 10 35 10 19 0 35 -5 35 -11 0 -5 4 -8 9 -4 5 3
12 1 15 -4 3 -5 15 -7 26 -4 12 3 20 0 20 -7 0 -7 7 -10 15 -6 8 3 15 1 15 -4
0 -6 7 -10 15 -10 8 0 15 5 15 10 0 6 -4 10 -9 10 -4 0 -6 12 -3 26 3 19 16
31 46 44 l41 18 11 -25 11 -25 16 34 c9 18 17 26 17 19 0 -11 3 -12 11 -4 9 9
8 16 -5 28 -20 20 -21 32 -2 16 11 -9 15 -9 18 0 2 6 19 12 38 14 52 4 52 4
45 15 -3 6 0 10 7 11 7 0 21 2 31 4 14 3 16 0 7 -10 -15 -18 2 -27 35 -19 17
4 25 2 25 -7 1 -9 6 -7 15 5 13 18 19 15 16 -6 -1 -10 92 22 104 36 6 6 17 10
26 8 9 -1 19 5 23 14 5 14 4 15 -9 4 -12 -10 -15 -10 -15 0 0 7 8 18 17 25 14
11 20 10 30 -4 12 -14 12 -14 6 4 -3 11 -2 17 2 12 5 -4 19 0 33 9 29 19 190
45 198 32 10 -15 118 -5 131 12 7 8 13 10 13 5 0 -6 9 -11 19 -11 11 0 17 4
15 8 -7 11 24 10 46 -2 16 -8 18 -8 14 4 -5 14 -3 14 24 0 17 -8 46 -15 66
-16 27 -1 36 -6 38 -22 3 -18 10 -21 48 -21 45 0 45 0 51 40 3 22 7 36 8 32 0
-4 10 -3 21 3 16 9 18 8 14 -5 -4 -8 -12 -15 -20 -15 -8 0 -14 -4 -14 -9 0
-11 39 -9 58 3 7 4 12 4 12 0 0 -4 11 3 25 16 18 17 41 24 92 29 37 4 73 10
79 14 6 3 29 -2 50 -12 21 -11 42 -17 45 -15 4 2 9 -3 13 -11 3 -10 19 -15 45
-15 22 0 51 -4 65 -10 17 -6 27 -6 32 1 4 8 9 7 15 -2 5 -8 9 -9 9 -4 0 12
108 12 165 0 22 -4 51 -16 64 -26 13 -10 27 -16 31 -14 5 3 11 1 14 -4 3 -5
14 -7 24 -4 10 2 39 -5 66 -16 26 -12 52 -19 57 -15 22 13 150 18 158 5 3 -4
17 -11 31 -15 19 -6 21 -5 10 3 -11 8 -11 11 -2 11 20 0 72 -29 72 -40 0 -6 4
-10 8 -10 9 0 123 276 122 296 0 15 -367 124 -418 124 -23 0 -25 -6 -60 -155
-18 -76 -20 -80 -48 -83 -59 -5 -61 5 -29 137 16 66 27 123 24 125 -9 9 -348
62 -350 54 0 -1 -8 -59 -17 -128 l-17 -125 -39 -3 c-21 -2 -42 0 -46 5 -4 4 1
64 11 132 10 69 17 127 14 129 -7 7 -214 21 -322 21 l-103 1 0 -175 0 -175
-46 0 -47 0 5 163 c3 89 3 168 1 175 -5 14 -47 14 -192 1z m-1247 -797 c17
-37 47 -105 68 -151 21 -46 37 -84 36 -85 -2 -1 -20 -7 -41 -13 l-39 -12 -49
104 c-28 57 -53 105 -57 107 -8 3 -45 79 -40 82 25 13 75 35 83 35 6 0 23 -30
39 -67z m240 -524 c43 -95 80 -180 82 -188 4 -12 -5 -15 -39 -17 l-44 -1 -58
129 c-32 71 -62 129 -67 129 -8 0 -38 64 -38 81 0 9 55 37 76 38 5 1 45 -77
88 -171z m-669 -331 c33 -45 95 -126 138 -180 43 -54 76 -104 74 -111 -4 -11
-67 -31 -72 -24 -28 41 -220 274 -228 277 -15 6 -56 54 -57 68 0 12 58 53 75
53 6 -1 37 -38 70 -83z m1140 51 c4 -13 29 -93 56 -179 27 -85 49 -158 49
-161 0 -3 -10 -8 -22 -11 -13 -2 -30 -8 -39 -11 -14 -6 -24 15 -59 126 -23 73
-48 140 -56 149 -8 8 -14 23 -14 32 0 8 -7 22 -15 31 -17 16 -11 23 33 36 45
14 60 11 67 -12z m295 -2 c5 -13 12 -55 15 -93 3 -37 12 -93 19 -123 29 -116
39 -181 30 -189 -5 -5 -24 -12 -41 -16 -27 -5 -33 -3 -33 10 0 9 -4 13 -10 10
-6 -4 -7 1 -3 10 7 19 -11 126 -39 235 -36 139 -39 153 -34 157 4 5 57 19 79
22 4 1 12 -10 17 -23z m-901 -33 c-1 -10 -1 -33 0 -51 1 -40 21 -33 21 7 0 16
7 35 16 42 14 11 19 10 34 -9 21 -26 27 -27 32 -6 3 13 5 13 23 0 17 -14 18
-17 5 -26 -13 -8 -13 -10 3 -10 9 0 17 5 17 12 0 6 2 9 5 6 3 -3 -1 -17 -8
-31 -8 -15 -16 -25 -18 -23 -2 2 -4 -9 -5 -25 -1 -24 1 -27 13 -18 21 18 5
-20 -20 -48 -18 -20 -18 -23 -4 -23 9 0 17 5 17 10 0 6 5 16 10 23 6 7 17 21
26 32 13 17 13 15 -1 -19 -8 -21 -12 -42 -9 -47 3 -5 -2 -9 -10 -9 -9 0 -16
-5 -16 -10 0 -6 -10 -15 -22 -20 -14 -5 -17 -9 -7 -9 8 -1 20 4 27 11 9 9 12
8 12 -5 0 -14 -10 -17 -53 -17 -29 0 -59 6 -67 13 -7 6 -4 -4 8 -23 12 -19 26
-34 32 -33 5 2 7 -4 4 -11 -3 -8 3 -27 14 -43 93 -134 106 -170 67 -180 -43
-11 -48 -7 -110 92 -35 55 -68 101 -74 103 -6 2 -20 19 -32 39 -22 35 -22 36
-3 50 10 8 29 16 42 20 25 6 28 23 10 54 -11 18 -10 23 0 26 10 4 10 8 0 21
-11 14 -9 14 8 0 11 -10 23 -18 26 -18 8 0 5 21 -5 38 -5 7 -3 12 4 12 6 0 0
9 -15 21 -28 22 -35 66 -14 87 16 16 20 15 17 -5z m356 -163 c41 -90 74 -164
72 -165 -7 -4 -81 -24 -82 -22 -1 1 -25 55 -55 120 -29 65 -58 121 -64 125
-11 7 -49 83 -44 87 4 3 92 22 95 20 2 -1 36 -75 78 -165z m-479 -373 c107
-139 110 -147 52 -161 -25 -6 -34 1 -99 84 -66 83 -79 95 -102 91 -5 -1 -6 2
-3 7 3 5 -4 18 -14 30 -11 12 -20 25 -20 31 0 10 60 51 75 50 6 0 56 -60 111
-132z m-276 -88 c0 -6 -6 -9 -14 -6 -8 3 -17 1 -20 -6 -3 -9 -7 -8 -15 3 -5 8
-12 12 -15 9 -4 -3 48 -61 114 -129 66 -68 120 -127 120 -131 0 -4 -12 -17
-27 -29 l-26 -21 -103 98 c-56 54 -117 110 -136 125 l-33 28 37 35 c30 28 46
35 78 35 23 0 40 -5 40 -11z m-7 -379 c95 -77 166 -142 166 -152 1 -10 -10
-25 -24 -34 -21 -14 -28 -14 -42 -3 -10 8 -69 56 -131 107 -62 52 -123 99
-135 106 -44 23 -67 41 -67 50 0 13 52 67 61 64 3 -2 81 -64 172 -138z m-214
-170 c100 -67 181 -123 181 -126 0 -14 -34 -54 -46 -54 -7 0 -78 43 -157 95
-79 52 -149 95 -156 95 -6 0 -23 7 -36 16 l-25 16 22 39 c12 22 25 39 29 39 4
0 88 -54 188 -120z m-226 -175 l165 -86 -9 -32 c-5 -17 -9 -33 -9 -34 0 -14
-53 8 -164 67 -73 39 -142 70 -152 70 -10 0 -27 6 -36 14 -16 12 -16 15 0 49
9 20 22 36 28 37 7 0 86 -38 177 -85z m-1188 -139 c17 -2 36 -5 43 -5 6 -1 11
-6 10 -13 -2 -6 5 -14 16 -16 11 -2 16 0 12 7 -5 7 4 11 23 11 17 0 31 -5 31
-11 0 -5 -4 -7 -10 -4 -5 3 -10 2 -10 -2 0 -12 37 -43 43 -36 3 3 3 -4 0 -16
-3 -12 -1 -21 6 -21 6 0 16 -12 21 -26 6 -15 19 -39 30 -54 19 -27 19 -27 -1
-46 -26 -23 -24 -24 141 -64 231 -56 290 -72 296 -82 7 -11 -15 -68 -27 -68
-5 0 -98 20 -206 44 -109 25 -209 46 -223 48 -22 3 -25 7 -22 41 2 21 -2 37
-8 37 -5 0 -10 -4 -10 -10 0 -13 -36 -13 -60 0 -15 8 -23 6 -38 -10 l-19 -20
-152 35 c-84 19 -162 35 -174 35 -44 0 -52 14 -36 57 16 41 19 42 101 28 l46
-7 -2 31 c-1 20 3 31 13 33 9 2 16 14 16 28 0 15 5 24 13 22 7 -1 16 6 19 15
7 19 29 44 38 43 20 -1 25 2 25 17 0 16 1 16 13 0 6 -9 26 -18 42 -21z m-165
-569 l185 -22 3 -30 c5 -60 1 -61 -180 -40 -90 10 -174 19 -188 19 -21 1 -26
7 -28 34 -4 37 3 62 15 61 4 0 91 -10 193 -22z m550 -67 c266 -31 243 -25 235
-68 -4 -20 -9 -39 -11 -41 -3 -3 -70 3 -150 13 -80 9 -183 20 -229 23 l-85 6
0 33 c0 52 9 66 39 60 14 -3 105 -15 201 -26z m-292 -382 c7 -7 12 -27 12 -45
0 -28 -4 -33 -22 -33 -13 0 -107 -3 -210 -6 l-188 -5 0 45 0 46 193 3 c105 1
194 3 198 5 3 1 10 -3 17 -10z m510 -35 l3 -43 -175 -1 c-97 -1 -182 -2 -188
-3 -13 -1 -24 55 -15 77 3 9 59 12 188 12 l184 0 3 -42z m496 25 c3 -13 6 -33
6 -45 l0 -23 -180 0 c-99 0 -183 -1 -187 -2 -10 -4 -16 59 -9 78 4 11 40 14
185 14 177 0 179 0 185 -22z m-392 -268 c0 -16 1 -36 2 -42 1 -9 -64 -19 -229
-34 -126 -12 -231 -21 -232 -21 -1 1 -3 20 -5 42 l-3 40 55 8 c80 11 318 34
368 36 40 1 42 0 44 -29z m-592 -71 c0 -21 -3 -39 -7 -40 -5 0 -108 -10 -230
-22 l-222 -23 -5 21 c-8 29 -7 65 2 66 113 13 449 44 455 41 4 -2 7 -21 7 -43z
m1133 -96 c2 -5 7 -24 11 -43 l6 -36 -216 -43 c-235 -47 -234 -47 -234 14 l0
30 173 34 c94 19 181 37 192 42 26 10 63 11 68 2z m-554 -150 c6 -20 9 -38 8
-40 -2 -1 -97 -22 -211 -45 -227 -47 -229 -47 -224 17 l3 29 200 41 c110 23
203 39 207 38 4 -2 12 -20 17 -40z m-553 -86 c2 -7 6 -26 7 -42 l2 -29 -185
-37 c-102 -21 -188 -34 -191 -31 -7 7 -22 82 -17 82 18 1 302 61 306 65 11 11
73 4 78 -8z m1053 -67 c17 -30 19 -41 9 -44 -7 -2 -94 -29 -192 -60 -98 -31
-182 -53 -187 -49 -4 4 -10 24 -14 43 l-6 35 128 40 c70 21 148 47 173 57 62
24 63 23 89 -22z m-500 -156 c7 -19 10 -38 7 -41 -9 -9 -389 -133 -408 -133
-19 0 -45 67 -32 80 5 4 50 19 99 34 50 14 137 41 195 60 58 20 110 35 115 36
6 0 17 -16 24 -36z m-544 -174 c10 -22 16 -42 14 -44 -3 -2 -226 -76 -306
-101 -13 -4 -43 43 -43 68 0 9 24 23 58 35 81 30 235 79 248 81 6 0 19 -17 29
-39z m599 -128 c2 -4 7 -23 10 -42 l7 -35 -88 -39 c-48 -22 -130 -59 -180 -82
l-93 -43 -15 29 c-21 40 -19 55 8 68 54 27 333 152 339 152 4 0 9 -3 12 -8z
m-478 -92 c14 0 22 -4 19 -10 -3 -5 2 -10 12 -10 12 0 19 -8 20 -22 1 -11 7
-24 14 -28 8 -5 8 -10 1 -14 -6 -4 -8 -14 -5 -23 4 -9 -1 -21 -12 -29 -14 -10
-15 -14 -4 -14 11 -1 11 -3 -2 -13 -11 -8 -15 -24 -14 -47 3 -31 2 -33 -10
-17 -12 17 -22 14 -156 -47 -78 -36 -144 -66 -145 -66 -7 0 -34 60 -34 75 0 9
13 22 29 28 27 10 28 13 24 56 -4 51 12 92 33 84 8 -3 17 2 20 12 4 9 12 14
19 11 6 -2 18 4 25 14 7 10 19 16 27 13 8 -3 13 0 11 8 -2 7 3 13 10 14 7 0
16 5 20 11 8 14 41 23 60 18 8 -2 25 -4 38 -4z m734 -238 c7 -18 11 -34 9 -36
-2 -2 -92 -58 -199 -125 -160 -101 -198 -121 -212 -112 -25 16 -31 14 -25 -9
3 -10 2 -18 -2 -17 -3 1 -7 -2 -8 -7 -1 -5 -7 -12 -13 -16 -8 -5 -9 -13 -4
-21 5 -8 9 -21 9 -29 0 -8 6 -14 13 -12 8 1 11 -2 7 -8 -11 -17 4 -45 37 -70
17 -12 28 -18 24 -11 -4 6 -1 11 9 11 9 0 13 -4 10 -10 -3 -5 3 -10 14 -10 14
0 19 -5 15 -15 -4 -10 0 -15 12 -15 9 0 14 -3 11 -7 -4 -3 -1 -13 5 -21 7 -7
14 -23 15 -35 2 -12 9 -24 15 -28 14 -9 18 -48 6 -55 -4 -3 -8 -11 -8 -17 0
-7 4 -6 10 3 7 12 9 10 7 -7 -1 -22 -1 -22 -22 -3 -12 11 -24 20 -28 20 -3 0
-65 -47 -138 -105 -73 -58 -135 -105 -139 -105 -3 0 -19 13 -34 29 l-29 30 32
39 c26 34 29 41 16 52 -11 9 -12 17 -4 32 8 15 8 19 0 14 -6 -4 -11 0 -11 8 0
9 5 16 11 16 8 0 8 5 -1 15 -7 8 -10 15 -7 15 3 0 2 14 -3 30 -6 22 -5 30 4
30 7 0 13 7 13 15 0 11 -4 12 -13 4 -7 -6 -19 -9 -26 -6 -9 4 -7 6 4 6 9 1 18
5 20 9 4 11 97 72 109 72 14 0 11 25 -8 59 -10 17 -23 29 -30 27 -6 -3 -73
-43 -148 -90 -75 -47 -142 -86 -149 -86 -7 0 -20 16 -29 34 -16 34 -16 35 11
58 22 19 35 58 22 71 -3 3 -9 44 -12 89 -2 32 3 42 35 70 20 19 37 40 37 48 1
17 34 60 47 60 9 0 48 41 48 52 0 17 13 16 29 -1 14 -16 22 -18 35 -9 22 13
85 3 105 -18 9 -8 26 -13 41 -10 20 4 28 -1 39 -22 7 -15 11 -33 9 -39 -8 -21
9 -15 92 37 44 27 111 68 149 91 38 23 85 53 104 66 39 26 42 24 62 -25z m193
-241 c17 -29 17 -32 1 -38 -9 -3 -93 -67 -188 -140 l-170 -135 -23 29 c-13 15
-23 33 -23 39 0 5 19 24 43 41 23 17 105 80 182 141 80 63 144 106 150 101 6
-4 18 -21 28 -38z m2462 -421 c4 -21 4 -43 1 -48 -2 -4 2 -83 11 -176 8 -92
14 -169 12 -171 -2 -1 -20 -5 -39 -7 l-35 -3 -22 215 c-11 118 -19 218 -16
223 2 4 22 7 43 7 37 0 38 -1 45 -40z m249 4 c3 -9 9 -44 12 -78 3 -33 19
-119 35 -191 16 -71 29 -135 29 -141 0 -10 -69 -28 -77 -20 -2 2 -15 61 -29
132 -13 71 -34 162 -45 202 -11 39 -17 77 -14 82 5 8 51 26 76 29 4 1 10 -6
13 -15z m-2991 -104 c5 0 6 4 2 9 -3 6 12 10 35 9 32 0 40 -4 40 -19 0 -11 5
-19 10 -19 15 0 12 -17 -6 -35 -22 -22 -9 -33 14 -12 25 23 34 21 65 -11 26
-27 26 -29 10 -43 -10 -8 -74 -72 -143 -142 -69 -70 -133 -127 -142 -127 -21
0 -62 56 -48 65 17 11 11 25 -15 35 -14 5 -25 13 -26 17 0 5 -2 17 -5 28 -2
11 -6 35 -9 54 -3 18 -8 38 -11 43 -4 6 -1 9 7 6 8 -3 13 -17 13 -31 -1 -15 3
-27 8 -27 6 0 8 6 5 13 -3 8 -1 20 3 27 5 8 4 22 -2 33 -8 15 -7 18 3 12 9 -6
11 -3 6 9 -4 10 -7 22 -7 27 0 5 -7 9 -15 9 -8 0 -15 4 -15 9 0 5 9 7 20 4 15
-4 20 0 20 16 0 11 5 21 10 21 6 0 10 -7 10 -15 0 -27 24 -11 43 30 14 31 20
36 27 25 8 -12 10 -10 10 8 0 15 4 21 12 16 8 -5 9 -2 4 12 -4 10 8 2 26 -18
18 -21 37 -38 41 -38z m2534 -222 l-2 -183 -38 -6 c-25 -4 -40 -2 -43 5 -3 7
-3 88 -2 181 l3 170 35 6 c19 4 38 7 42 8 4 0 7 -81 5 -181z m-2144 -66 l27
-28 -33 -30 c-18 -16 -84 -93 -147 -171 -63 -79 -120 -143 -127 -143 -6 0 -24
10 -39 23 l-27 23 147 177 c81 97 153 177 160 177 7 0 24 -13 39 -28z m2402
-152 c4 -6 6 -36 6 -68 0 -31 7 -128 16 -215 8 -87 14 -159 12 -161 -2 -2 -21
-6 -41 -9 l-37 -6 -5 42 c-11 91 -36 363 -36 389 0 27 4 29 67 37 6 0 15 -4
18 -9z m-2127 -80 l34 -21 -27 -32 c-14 -18 -62 -86 -106 -152 -44 -66 -84
-121 -89 -123 -9 -3 -70 25 -70 32 0 6 181 279 198 299 19 21 20 21 60 -3z
m1510 -16 c14 -4 17 -75 3 -89 -4 -6 -16 -80 -25 -165 -23 -213 -19 -202 -64
-198 -30 2 -37 7 -35 23 9 101 45 423 49 433 3 11 26 10 72 -4z m363 -184 c-2
-96 -6 -178 -10 -182 -3 -3 -22 -8 -41 -10 l-35 -3 -3 175 c-1 96 0 180 3 188
3 9 19 12 47 10 l43 -3 -4 -175z m-1600 -66 l30 -15 -20 -32 c-11 -18 -46 -81
-76 -141 l-56 -108 -36 5 c-19 4 -38 9 -41 12 -9 9 142 295 156 295 7 0 27 -7
43 -16z m354 -176 c23 -10 26 -16 21 -42 -4 -16 -12 -37 -19 -45 -8 -9 -31
-64 -51 -123 l-38 -106 -31 9 c-17 5 -34 12 -38 16 -11 12 101 303 117 303 7
0 25 -5 39 -12z m457 -134 c9 -6 -1 -64 -14 -80 -6 -8 -68 -272 -68 -290 0 -4
-72 15 -77 19 -2 3 10 68 27 144 18 76 37 158 42 181 10 44 10 44 46 37 20 -4
40 -9 44 -11z m366 -67 c2 -21 -1 -44 -6 -50 -6 -7 -16 -76 -23 -154 l-12
-143 -45 0 -45 0 6 38 c3 20 13 102 23 182 9 80 18 151 20 158 2 9 17 12 41
10 36 -3 38 -5 41 -41z"/>
<path d="M7436 9688 c-8 -18 -33 -84 -57 -147 l-43 -113 -38 5 c-21 3 -38 1
-38 -4 0 -5 5 -9 11 -9 7 0 9 -12 5 -33 -6 -31 -4 -33 40 -50 45 -16 46 -16
51 3 6 23 43 27 43 5 0 -8 7 -15 15 -15 8 0 15 5 15 11 0 6 7 3 16 -5 16 -17
64 -22 64 -7 0 18 82 5 97 -15 8 -10 19 -18 24 -16 5 1 9 -2 9 -8 0 -31 27 5
95 131 42 77 75 142 73 143 -9 7 -205 96 -212 96 -4 0 -22 6 -39 14 -42 19
-108 46 -114 46 -2 0 -10 -15 -17 -32z"/>
<path d="M7882 9488 c-11 -18 -46 -84 -78 -145 -45 -86 -64 -113 -79 -113 -21
0 -51 -52 -41 -69 3 -5 26 -16 51 -25 25 -8 43 -11 41 -7 -3 4 1 17 9 27 8 10
15 14 15 9 0 -6 8 -11 18 -12 43 -5 82 -16 82 -24 0 -5 7 -9 15 -9 8 0 15 -6
15 -12 0 -10 2 -10 8 -1 17 26 82 9 82 -22 0 -29 16 -14 70 66 30 44 68 97 83
117 53 68 54 66 -26 115 -67 42 -236 137 -242 137 -2 0 -12 -15 -23 -32z"/>
<path d="M6416 9458 c-3 -7 -10 -62 -16 -123 -17 -163 -18 -165 -50 -165 -25
0 -29 -4 -35 -41 -4 -22 -5 -42 -3 -45 3 -2 25 -7 50 -10 l45 -6 7 48 c16 111
35 281 36 317 0 27 -4 37 -15 37 -9 0 -17 -6 -19 -12z"/>
<path d="M5620 9428 c0 -13 7 -86 15 -163 20 -194 21 -183 -20 -187 -20 -2
-35 -6 -35 -10 0 -5 0 -26 0 -48 l0 -40 50 0 50 0 0 40 c0 34 2 39 14 28 10
-9 11 -15 2 -20 -7 -5 -4 -8 8 -8 10 0 24 6 30 13 6 8 35 19 65 26 44 9 56 9
63 -1 6 -10 8 -10 8 0 0 6 5 12 10 12 6 0 10 -16 10 -35 0 -41 14 -50 65 -41
l35 7 0 204 c0 176 -2 205 -15 205 -13 0 -15 -24 -15 -154 l0 -153 -27 -6
c-16 -3 -36 -9 -45 -12 -16 -6 -18 1 -18 69 l0 76 -45 0 c-42 0 -89 20 -107
45 -4 5 -8 6 -8 2 0 -5 -7 -2 -15 7 -9 8 -22 13 -29 10 -11 -4 -15 13 -21 75
-4 45 -11 81 -16 81 -5 0 -9 -10 -9 -22z"/>
<path d="M6812 9403 c-5 -10 -22 -76 -37 -146 -28 -124 -30 -128 -52 -122 -19
4 -25 0 -33 -20 -19 -49 -13 -63 31 -75 23 -6 44 -8 48 -5 3 4 25 86 47 183
29 122 38 181 32 190 -14 17 -26 15 -36 -5z"/>
<path d="M8189 9134 c-57 -84 -111 -154 -119 -154 -8 0 -24 -12 -34 -27 -19
-26 -19 -26 5 -44 38 -30 68 -34 85 -13 13 17 13 17 8 1 -4 -10 -3 -17 2 -16
21 4 35 -2 29 -11 -3 -5 -1 -10 4 -10 6 0 11 4 11 8 0 17 98 13 125 -4 28 -18
35 -9 8 12 -12 9 -14 13 -5 14 8 0 27 -14 44 -31 25 -25 33 -28 44 -17 7 7 54
60 104 118 l91 105 -33 28 c-39 34 -154 120 -219 164 l-46 32 -104 -155z"/>
<path d="M7220 9115 c-37 -100 -46 -115 -66 -115 -16 0 -25 -9 -33 -31 -6 -18
-11 -35 -11 -39 0 -11 82 -32 91 -23 10 10 109 280 109 298 0 12 -21 25 -40
25 -4 0 -27 -52 -50 -115z"/>
<path d="M5097 9187 c-4 -11 -5 -23 -2 -27 3 -5 -6 -7 -20 -5 -25 2 -35 -10
-14 -17 5 -2 12 -16 13 -31 2 -19 -1 -27 -13 -28 -13 0 -14 -1 -1 -6 21 -8 50
-40 43 -47 -4 -3 2 -6 12 -6 10 0 15 -3 12 -7 -8 -7 11 -33 24 -33 5 0 9 8 9
18 0 14 2 15 9 2 6 -8 8 -17 6 -21 -8 -12 35 -48 51 -42 9 3 20 0 26 -8 8 -11
9 -11 5 3 -6 19 30 32 59 21 14 -5 16 -3 10 13 -4 10 -14 46 -21 79 -7 33 -14
50 -14 39 -1 -17 -11 -24 -47 -33 -44 -11 -45 -12 -38 -44 6 -28 5 -30 -10
-18 -9 7 -16 19 -16 27 0 7 -10 19 -22 25 -14 8 -18 14 -10 17 6 2 9 9 6 15
-3 7 3 1 14 -13 12 -14 24 -22 28 -18 4 4 1 14 -6 23 -7 9 -10 25 -6 41 4 15
3 23 -2 20 -6 -3 -13 4 -16 17 l-7 22 -9 -22 c-16 -39 -38 -28 -42 20 -2 30
-5 37 -11 24z"/>
<path d="M7636 9018 c-8 -13 -34 -62 -57 -110 -30 -61 -49 -88 -61 -88 -14 0
-48 -45 -48 -64 0 -6 68 -36 81 -36 10 0 149 273 149 294 0 13 -20 26 -41 26
-5 0 -15 -10 -23 -22z"/>
<path d="M8640 8988 c-12 -13 -58 -67 -103 -120 -45 -54 -86 -98 -92 -98 -6 0
-21 8 -35 17 -23 16 -23 16 -15 -3 5 -10 8 -30 7 -44 -1 -18 9 -32 33 -49 19
-13 33 -26 31 -30 -2 -3 9 -7 25 -7 17 -1 38 -8 47 -16 9 -8 31 -21 49 -29 18
-7 36 -21 40 -30 7 -14 30 4 131 102 103 100 122 122 112 135 -7 8 -57 55
-111 105 l-97 90 -22 -23z"/>
<path d="M6355 8938 c-3 -11 -45 -334 -45 -351 0 -4 -13 -7 -30 -7 -22 0 -30
-5 -30 -17 0 -10 -3 -28 -6 -40 -7 -24 10 -36 63 -47 29 -7 32 -5 35 21 2 15
9 28 16 27 6 -1 36 -2 66 -2 52 -2 54 -3 51 -27 -2 -20 2 -25 21 -25 15 0 24
6 24 15 0 8 4 15 9 15 5 0 12 8 14 18 2 9 3 2 1 -16 -2 -29 1 -34 33 -47 52
-22 58 -20 71 33 7 26 17 63 23 84 7 26 14 35 27 33 21 -3 51 48 52 89 0 25
-2 27 -17 15 -15 -13 -15 -12 -5 8 9 16 9 24 0 29 -7 4 -8 3 -4 -4 4 -7 2 -12
-3 -12 -15 0 -14 13 6 98 12 53 14 75 6 83 -21 21 -39 2 -51 -52 -7 -30 -26
-113 -43 -186 l-31 -131 -36 5 c-21 3 -40 8 -44 12 -3 3 2 40 13 81 10 41 21
95 25 119 l7 44 -52 -5 c-37 -4 -51 -2 -51 7 0 7 -7 15 -14 18 -11 4 -13 1 -9
-10 4 -11 2 -14 -8 -11 -8 3 -13 10 -12 16 3 16 -31 9 -38 -8 -3 -8 -4 20 -1
63 4 67 2 77 -12 77 -9 0 -18 -6 -21 -12z"/>
<path d="M7885 8680 c-47 -71 -93 -130 -100 -130 -17 0 -49 -45 -42 -57 7 -11
76 -47 80 -42 2 2 23 32 47 67 23 34 46 62 50 62 4 0 7 6 7 13 0 7 23 47 51
90 29 42 52 80 52 85 0 9 -43 42 -54 42 -2 0 -43 -58 -91 -130z"/>
<path d="M7071 8718 c-18 -46 -43 -113 -57 -150 -21 -55 -29 -67 -46 -65 -15
1 -24 -6 -31 -27 -9 -26 -7 -32 19 -53 49 -39 58 -32 98 72 55 143 101 283 96
288 -3 3 -15 7 -26 11 -20 6 -25 -2 -53 -76z"/>
<path d="M8860 8657 c-41 -40 -106 -101 -145 -136 -38 -35 -73 -72 -77 -83 -4
-10 -4 -17 1 -14 4 3 19 -6 32 -20 12 -13 29 -22 36 -20 7 3 13 0 13 -6 0 -6
9 -3 19 6 18 16 21 16 43 2 26 -17 88 -28 88 -16 0 11 44 4 48 -8 2 -6 10 -8
18 -5 8 3 14 -1 14 -10 0 -9 6 -20 13 -24 7 -4 18 -20 24 -35 7 -16 17 -28 22
-28 5 0 36 20 68 45 32 25 75 57 96 70 20 14 37 31 37 38 -1 22 -246 315 -265
316 -5 0 -44 -32 -85 -72z"/>
<path d="M7352 8470 c-60 -115 -89 -160 -101 -160 -16 0 -41 -37 -41 -59 0 -4
19 -16 42 -27 30 -14 43 -15 46 -6 2 6 11 21 20 33 15 17 21 19 45 10 16 -6
33 -8 39 -5 6 4 14 0 19 -7 6 -10 9 -10 9 -2 0 10 6 10 25 1 21 -9 27 -8 44
13 11 13 23 33 27 43 4 11 15 28 25 39 14 16 16 23 6 39 -7 10 -22 21 -35 25
-13 3 -21 8 -18 10 3 3 -5 14 -17 24 -12 10 -16 18 -9 19 6 0 12 4 12 10 0 5
-6 7 -12 5 -7 -3 -19 -1 -26 3 -10 7 -6 22 17 68 31 63 31 69 -9 79 -24 6 -29
-3 -108 -155z"/>
<path d="M8203 8466 c-70 -85 -133 -155 -139 -155 -6 -1 -19 -10 -29 -21 -17
-19 -17 -21 1 -41 38 -42 53 -44 89 -9 31 30 32 31 38 10 3 -12 10 -19 16 -16
5 4 12 2 16 -4 3 -5 13 -10 22 -10 9 0 24 -7 33 -15 14 -13 22 -8 80 50 35 35
65 71 66 80 2 13 -1 14 -12 4 -17 -14 -44 4 -44 30 0 9 -6 23 -12 29 -10 10
-10 15 1 22 13 7 13 11 1 25 -13 16 -15 16 -27 -1 -7 -10 -13 -13 -13 -7 0 7
4 14 9 17 4 3 27 30 51 61 36 46 40 57 30 71 -38 45 -43 42 -177 -120z"/>
<path d="M7588 8235 c-51 -80 -98 -145 -105 -145 -13 0 -43 -38 -43 -55 0 -11
68 -52 73 -44 15 19 107 152 127 181 14 21 28 38 33 38 4 0 7 5 7 12 0 6 17
36 37 66 l38 54 -24 19 c-13 10 -29 19 -36 19 -7 0 -55 -65 -107 -145z"/>
<path d="M6304 8360 c-19 -7 -23 -22 -34 -112 -6 -57 -13 -110 -14 -118 -1
-10 -12 -15 -31 -15 -29 0 -30 -2 -30 -45 0 -43 1 -44 39 -52 48 -10 52 -6 61
81 4 36 10 60 12 53 3 -8 9 -10 16 -4 16 12 58 22 52 12 -3 -4 7 -11 21 -14
15 -4 27 -6 28 -4 9 14 40 168 38 184 -3 24 -48 39 -56 20 -2 -6 -5 -3 -5 7
-1 13 -9 17 -38 16 -21 0 -48 -4 -59 -9z"/>
<path d="M8399 8206 l-147 -144 27 -26 c15 -14 33 -26 39 -26 7 0 76 63 153
139 l141 139 -23 31 c-12 17 -28 31 -33 31 -6 -1 -77 -65 -157 -144z"/>
<path d="M9170 8263 c-52 -41 -106 -80 -119 -86 -34 -17 -34 -27 -1 -67 22
-27 32 -32 40 -23 9 8 18 6 36 -9 13 -12 21 -25 17 -31 -7 -11 46 -59 58 -51
5 3 9 1 9 -5 0 -5 -5 -13 -11 -17 -8 -5 -6 -10 5 -16 9 -5 16 -20 16 -34 0
-18 4 -23 13 -18 8 6 8 3 -1 -9 -8 -9 -11 -21 -7 -27 3 -6 6 -35 6 -65 0 -30
5 -55 10 -55 6 0 7 -4 4 -10 -3 -5 3 -10 15 -10 13 0 19 4 14 12 -4 7 -3 8 5
4 6 -4 9 -11 6 -15 -2 -5 12 -26 33 -48 28 -29 44 -39 64 -37 22 2 28 -2 33
-27 4 -16 12 -29 18 -28 7 1 19 1 27 0 13 -1 13 -2 0 -11 -12 -8 -12 -10 5
-10 14 0 16 -3 7 -8 -10 -7 -9 -18 5 -55 10 -26 20 -46 24 -45 100 39 219 95
219 103 0 14 -167 345 -189 374 l-18 24 -100 -62 c-55 -33 -102 -61 -105 -61
-4 0 -16 16 -28 37 -17 29 -18 38 -8 45 7 4 52 31 101 59 48 29 89 55 92 59 5
8 -156 256 -183 281 -16 15 -24 11 -112 -58z"/>
<path d="M3285 8310 c-17 -19 -13 -24 129 -167 157 -159 158 -159 194 -101 16
27 16 29 -10 55 -21 20 -30 24 -40 15 -11 -9 -36 11 -119 94 -124 126 -131
130 -154 104z"/>
<path d="M6551 8293 c-6 -21 -19 -76 -29 -123 -17 -79 -20 -85 -44 -88 -22 -3
-28 -10 -33 -43 -4 -22 -5 -42 -3 -44 2 -2 22 -7 45 -11 l40 -6 41 163 c36
148 39 165 24 177 -24 19 -30 15 -41 -25z"/>
<path d="M6866 8171 c-39 -106 -51 -130 -68 -133 -25 -4 -46 -54 -30 -70 5 -5
25 -11 42 -11 l33 -2 49 120 c67 165 74 191 58 210 -7 8 -18 15 -25 15 -6 0
-33 -58 -59 -129z"/>
<path d="M7838 8027 c-59 -73 -104 -135 -100 -138 4 -4 21 -10 38 -13 33 -7
34 -6 222 217 14 15 13 20 -8 42 -13 14 -28 25 -34 25 -6 -1 -59 -60 -118
-133z"/>
<path d="M3011 8089 c-11 -19 -10 -24 6 -39 28 -27 264 -222 307 -255 l38 -29
29 34 c16 19 29 38 29 42 0 4 -12 16 -26 27 -21 16 -30 18 -41 10 -14 -12 -17
-10 -239 173 -39 32 -75 58 -80 58 -5 0 -15 -10 -23 -21z"/>
<path d="M8790 7962 c-58 -46 -120 -93 -137 -104 -39 -24 -40 -34 -10 -71 l23
-27 85 66 c126 99 137 111 145 160 3 23 4 47 3 52 -2 5 -51 -29 -109 -76z"/>
<path d="M8991 7950 c-3 -169 -18 -240 -67 -338 -38 -76 -44 -95 -34 -107 22
-27 39 -16 68 43 22 43 29 73 30 121 1 36 6 69 12 75 12 12 12 174 1 231 -8
38 -9 36 -10 -25z"/>
<path d="M8083 7885 l-85 -88 37 -20 38 -19 73 73 c41 41 74 78 74 85 0 6 -11
21 -25 34 l-26 24 -86 -89z"/>
<path d="M6990 7874 c-19 -2 -89 -9 -155 -15 -66 -6 -163 -20 -215 -31 -52
-10 -113 -21 -135 -23 -52 -4 -95 -15 -95 -25 0 -11 -121 -54 -147 -52 -29 2
-72 -17 -103 -46 -34 -32 -150 -104 -150 -93 0 5 -18 7 -40 4 -27 -4 -66 3
-122 20 -111 35 -283 53 -362 38 -33 -6 -75 -11 -94 -11 -18 0 -70 -16 -115
-36 -45 -20 -92 -40 -104 -45 -22 -8 -22 -8 7 -39 l30 -32 56 22 c188 70 385
75 592 15 113 -33 137 -32 197 8 164 109 445 201 720 236 129 17 449 23 498
10 23 -6 89 -12 147 -14 223 -6 547 -104 682 -205 88 -66 138 -125 203 -235
29 -49 68 -103 85 -120 32 -30 91 -139 125 -228 31 -84 27 -43 -6 49 -43 124
-105 245 -138 271 -16 12 -52 64 -82 115 -69 120 -185 238 -284 290 -160 83
-463 155 -685 162 -58 2 -143 6 -190 9 -47 3 -101 3 -120 1z"/>
<path d="M2822 7740 c-6 -11 -12 -25 -12 -32 0 -11 276 -199 312 -213 14 -6
48 43 48 69 0 18 -29 36 -56 34 -10 -1 -73 34 -139 76 -66 43 -124 80 -130 82
-5 2 -16 -5 -23 -16z"/>
<path d="M9084 7696 c-72 -48 -81 -57 -82 -85 0 -17 -4 -41 -7 -53 -6 -17 -4
-20 10 -15 24 10 215 128 215 134 0 16 -34 73 -44 72 -6 0 -47 -24 -92 -53z"/>
<path d="M8760 7684 c-55 -41 -192 -100 -280 -121 -40 -9 -89 -13 -127 -10
-35 3 -63 3 -63 0 0 -3 9 -18 21 -34 19 -27 25 -29 83 -29 115 0 266 50 331
109 36 32 91 108 84 115 -2 2 -24 -12 -49 -30z"/>
<path d="M6800 7549 c-227 -18 -381 -59 -557 -148 -185 -93 -330 -225 -387
-352 -32 -71 -51 -160 -41 -195 6 -26 10 -20 40 63 81 227 269 386 580 493
261 90 670 124 900 75 83 -18 75 -17 75 -4 0 14 -57 37 -143 55 -89 19 -314
26 -467 13z"/>
<path d="M5070 7502 c-130 -105 -236 -209 -365 -357 -39 -44 -73 -82 -76 -85
-3 -3 -30 -36 -59 -75 -29 -38 -56 -72 -60 -75 -3 -3 -29 -34 -57 -70 -28 -36
-67 -81 -87 -99 -20 -19 -36 -39 -36 -45 0 -5 -7 -17 -16 -27 -15 -17 -14 -18
22 -12 57 9 75 21 141 98 33 39 72 81 87 94 14 14 26 29 26 33 0 19 195 242
360 411 55 56 101 113 110 135 8 21 23 51 33 66 25 38 17 41 -23 8z"/>
<path d="M8836 7471 c-25 -27 -96 -61 -129 -61 -33 0 -44 -17 -23 -38 24 -24
87 -19 137 10 l42 25 81 -89 c168 -187 261 -322 331 -484 40 -92 46 -79 11 24
-52 153 -174 348 -308 494 -42 46 -87 96 -100 111 l-23 29 -19 -21z"/>
<path d="M9626 7418 c-92 -43 -131 -56 -136 -48 -13 22 -22 -8 -9 -31 10 -19
9 -21 -5 -16 -11 5 -16 1 -16 -12 0 -22 26 -35 34 -18 3 7 5 3 4 -8 -2 -26 11
-67 20 -61 4 2 18 -1 31 -8 15 -8 19 -16 13 -20 -6 -4 -8 -14 -5 -22 4 -12 8
-13 14 -3 5 9 11 5 20 -14 6 -14 15 -24 19 -22 11 7 23 -34 21 -72 0 -21 4
-33 13 -33 12 0 234 68 248 76 10 7 -111 345 -131 365 -3 3 -64 -21 -135 -53z"/>
<path d="M5118 7363 c-17 -74 -18 -357 -1 -374 8 -8 11 13 12 87 0 84 17 230
28 243 1 2 13 -7 25 -20 13 -14 52 -42 88 -64 117 -70 134 -82 204 -146 93
-86 182 -199 223 -284 37 -77 41 -76 17 6 -53 177 -236 394 -430 507 -50 30
-103 64 -117 78 -14 13 -28 24 -31 24 -2 0 -11 -26 -18 -57z"/>
<path d="M9262 7249 l-84 -39 22 -31 c13 -17 28 -33 34 -35 19 -7 166 64 166
80 0 28 -23 66 -39 65 -9 0 -53 -18 -99 -40z"/>
<path d="M7086 7239 c-313 -29 -704 -161 -923 -311 -106 -72 -288 -256 -272
-273 3 -2 21 0 42 5 24 5 58 28 97 64 123 113 264 200 438 270 389 156 781
203 1095 132 166 -38 330 -96 483 -171 145 -71 224 -133 265 -209 26 -51 39
-58 39 -23 0 27 -67 133 -113 180 -82 82 -270 179 -487 251 -232 77 -450 105
-664 85z"/>
<path d="M9780 6975 c-121 -41 -126 -42 -141 -24 -16 18 -17 18 -22 -1 -3 -11
-1 -20 4 -20 5 0 9 -8 9 -17 0 -15 -2 -16 -10 -3 -8 12 -10 11 -10 -7 0 -16 4
-21 15 -17 8 4 15 1 15 -5 0 -6 -8 -11 -17 -12 -11 0 -13 -3 -5 -6 6 -2 10 -8
7 -13 -3 -4 8 -19 25 -33 16 -14 32 -37 36 -51 3 -14 10 -24 14 -21 8 5 14
-14 25 -85 3 -19 8 -36 10 -38 5 -5 251 40 266 48 8 5 1 48 -24 151 -39 157
-52 200 -64 198 -5 -1 -64 -20 -133 -44z"/>
<path d="M5035 6945 c13 -88 59 -210 139 -371 127 -254 185 -354 205 -354 39
0 52 46 30 109 -11 32 -29 42 -29 16 0 -40 -35 -4 -98 103 -128 216 -161 284
-224 457 -21 58 -27 69 -23 40z"/>
<path d="M3016 6756 c49 -46 105 -97 124 -112 19 -16 61 -52 93 -81 57 -52 60
-53 119 -53 62 0 138 17 138 31 0 9 -540 299 -556 299 -5 0 33 -38 82 -84z"/>
<path d="M8646 6640 c-27 -305 -107 -547 -238 -725 -73 -99 -290 -312 -371
-364 -37 -24 -65 -46 -63 -49 11 -10 216 99 293 156 130 97 252 278 319 476
50 145 93 455 76 546 -8 44 -8 43 -16 -40z"/>
<path d="M4595 6604 c-22 -3 -92 -12 -155 -20 -63 -9 -144 -18 -180 -21 -36
-2 -78 -7 -95 -11 -16 -5 -50 -5 -75 -1 -59 9 -63 3 -11 -18 36 -14 42 -20 38
-39 -4 -24 9 -34 44 -34 10 0 35 -9 56 -20 51 -26 122 -27 223 -5 14 3 43 8
64 11 22 3 47 9 55 14 9 4 53 11 98 15 46 4 80 11 77 16 -9 15 84 10 144 -7
92 -27 143 -57 245 -148 53 -47 103 -86 112 -86 10 0 15 10 15 30 0 37 -20 82
-34 77 -6 -2 -45 28 -86 66 -148 137 -237 178 -395 182 -55 2 -118 1 -140 -1z"/>
<path d="M5936 6567 c-90 -20 -101 -25 -121 -55 -13 -18 -30 -39 -38 -45 -8
-7 -18 -36 -22 -64 -6 -46 -5 -53 10 -53 24 0 73 37 80 60 4 13 13 19 28 16
31 -4 72 9 70 23 -2 6 0 11 5 12 4 0 16 3 27 5 94 23 191 27 322 13 90 -9 215
-13 358 -11 307 5 566 -22 790 -80 149 -38 361 -151 471 -251 47 -42 74 -57
74 -41 0 3 -12 26 -27 51 -85 145 -314 287 -569 352 -196 50 -323 63 -704 72
-201 5 -430 11 -510 13 -124 4 -159 2 -244 -17z"/>
<path d="M9857 6547 c-119 -25 -150 -28 -156 -18 -13 20 -19 1 -17 -52 1 -27
8 -52 15 -56 7 -4 13 -22 13 -40 1 -17 5 -34 9 -37 5 -3 6 1 3 9 -3 8 1 14 10
14 8 0 12 -5 10 -12 -7 -18 33 -48 53 -41 14 6 16 5 6 -5 -7 -7 -13 -24 -13
-38 0 -20 3 -23 9 -11 6 8 7 19 3 25 -3 5 2 4 11 -4 17 -14 24 -37 8 -27 -5 3
-11 -1 -15 -9 -3 -9 1 -15 11 -15 13 0 13 -3 3 -15 -11 -14 -4 -15 61 -9 41 3
98 9 128 13 l55 6 -3 70 c-1 39 -9 114 -17 167 -8 54 -14 102 -14 108 0 13 -1
13 -173 -23z"/>
<path d="M3796 6524 c-13 -33 -4 -42 77 -79 45 -20 121 -57 170 -81 48 -24 87
-41 87 -36 -1 4 -27 35 -58 70 -51 56 -67 67 -156 102 -55 22 -103 40 -107 40
-4 0 -10 -7 -13 -16z"/>
<path d="M3516 6475 c-26 -13 -66 -28 -89 -32 -22 -5 -42 -13 -44 -19 -2 -6
29 -40 69 -75 83 -74 125 -103 130 -90 8 22 116 15 208 -14 53 -16 130 -32
134 -27 3 3 6 -2 6 -11 0 -20 3 -20 51 -7 20 6 44 19 53 29 17 19 16 21 -22
45 -74 46 -418 226 -433 225 -7 0 -36 -11 -63 -24z"/>
<path d="M9491 6471 l-75 -17 -13 -79 c-12 -69 -33 -147 -58 -207 -6 -14 -2
-18 19 -18 33 0 43 20 64 128 l17 87 78 14 c69 13 77 17 77 37 0 29 -17 74
-27 73 -5 -1 -41 -9 -82 -18z"/>
<path d="M4090 6173 c-85 -66 -208 -113 -294 -113 -20 0 -36 -2 -36 -5 0 -9
85 -85 96 -85 6 0 16 -6 22 -13 14 -17 92 -13 103 5 5 7 9 10 9 7 0 -4 28 0
63 7 88 19 161 17 245 -6 39 -11 88 -20 108 -20 20 0 53 -5 74 -11 31 -10 41
-9 64 6 14 10 26 22 26 29 0 10 -322 186 -400 219 -35 14 -36 13 -80 -20z"/>
<path d="M9784 6168 c-4 -13 -7 -33 -5 -45 2 -17 -2 -21 -13 -17 -9 3 -16 10
-16 16 0 5 5 6 10 3 6 -3 10 -1 10 4 0 20 -43 11 -69 -13 -23 -20 -43 -25
-161 -36 -125 -12 -173 -16 -225 -19 -22 -1 -75 -85 -75 -117 1 -19 27 -61 33
-53 2 2 14 21 26 42 l23 37 66 -1 c37 -1 60 -3 50 -6 -14 -4 -15 -7 -3 -30 8
-15 12 -31 9 -35 -3 -5 -3 -20 0 -34 7 -25 8 -25 106 -23 73 1 100 5 100 14 0
7 7 15 15 19 8 3 15 13 15 21 0 9 5 13 11 9 7 -4 7 -10 1 -16 -6 -6 -8 -18 -4
-27 5 -13 7 -11 12 8 10 45 29 36 27 -13 -2 -36 -7 -47 -24 -55 -15 -7 -23 -7
-27 2 -2 7 -5 2 -5 -11 -1 -13 -5 -20 -11 -17 -5 3 -10 2 -10 -4 0 -5 6 -12
13 -14 6 -3 -32 -6 -85 -7 -54 -2 -102 -4 -108 -5 -5 -1 -43 -3 -84 -4 l-74
-1 0 -92 c-1 -162 -55 -332 -156 -488 l-45 -70 24 -6 c13 -3 25 -13 27 -22 5
-21 90 122 118 195 31 82 60 239 60 320 l0 74 89 -2 c72 -1 88 -4 84 -15 -4
-10 0 -12 12 -8 14 6 16 3 10 -17 l-8 -24 24 20 c13 11 28 26 32 33 5 7 28 12
56 12 47 0 47 0 43 30 -7 46 5 81 25 73 12 -5 15 -2 10 10 -3 9 -2 17 2 17 12
0 23 -29 15 -41 -3 -5 -12 -9 -20 -9 -8 0 -14 -3 -15 -7 0 -5 -2 -16 -4 -25
-2 -10 3 -18 11 -18 8 0 14 -4 14 -9 0 -18 33 -21 46 -4 10 15 10 19 -4 25 -9
4 -11 7 -4 7 7 1 12 14 12 34 0 24 -3 28 -10 17 -11 -17 -11 -15 -13 53 -1 27
2 51 7 55 5 3 6 0 2 -6 -4 -7 -2 -12 3 -12 6 0 11 7 11 15 0 8 9 15 20 15 11
0 20 -7 20 -15 0 -13 22 -15 135 -15 l135 0 0 145 c0 106 -3 145 -12 145 -7 0
-63 -5 -126 -11 -126 -12 -132 -10 -132 44 0 33 -16 36 -26 5z"/>
<path d="M4668 5847 c-90 -235 -125 -369 -153 -581 -17 -135 -20 -322 -4 -416
13 -82 40 -171 50 -164 5 3 4 16 -1 30 -5 13 -7 41 -4 62 3 27 2 33 -5 22 -9
-12 -11 -10 -11 12 0 20 4 26 15 22 12 -5 14 3 12 40 -1 25 0 46 4 46 4 0 5
32 3 70 -2 44 1 70 7 70 6 0 7 5 4 10 -3 6 -2 10 3 10 10 0 18 53 28 185 3 39
7 93 10 120 2 28 4 57 5 65 0 8 7 34 16 58 8 24 13 52 10 63 -3 13 0 22 10 26
15 6 43 61 73 145 25 70 12 229 -18 228 -4 0 -28 -55 -54 -123z"/>
<path d="M4555 5834 c-91 -76 -238 -147 -349 -169 l-29 -6 39 -40 c43 -44 61
-47 137 -21 28 10 67 17 86 15 20 -3 31 0 27 5 -3 6 2 8 11 6 14 -4 25 11 50
63 45 96 74 173 65 173 -4 -1 -20 -12 -37 -26z"/>
<path d="M3906 5775 c-12 -32 -18 -124 -12 -169 8 -51 25 -53 27 -3 1 18 4 43
8 57 7 24 9 22 80 -45 40 -39 76 -71 80 -73 5 -2 11 10 14 25 5 25 -5 39 -92
126 -78 78 -99 95 -105 82z"/>
<path d="M8505 5749 c-79 -81 -327 -256 -418 -294 -32 -13 -35 -18 -39 -64 -3
-28 -19 -79 -37 -115 -35 -71 -83 -117 -275 -266 -135 -105 -278 -244 -339
-331 -61 -86 -112 -194 -138 -294 -30 -116 -38 -382 -14 -489 9 -43 19 -75 23
-72 3 3 13 -11 23 -31 9 -21 18 -32 18 -25 1 7 -9 32 -21 55 -59 114 -19 467
73 650 85 167 219 318 424 477 61 47 146 121 190 165 86 85 105 122 105 203 0
39 1 41 63 70 130 62 351 251 396 341 31 60 14 70 -34 20z"/>
<path d="M9797 5744 c-10 -11 -9 -94 2 -94 8 0 20 -31 20 -53 0 -4 11 -18 25
-32 13 -13 29 -40 36 -60 6 -19 15 -33 19 -31 4 3 8 -5 8 -16 1 -12 8 -25 15
-29 10 -7 9 -9 -4 -9 -9 0 -19 5 -21 10 -3 6 -4 5 -3 -2 1 -7 13 -15 27 -19
13 -4 18 -7 10 -8 -7 -1 -11 -7 -8 -15 3 -7 1 -18 -5 -24 -8 -8 -5 -11 8 -12
10 0 40 -3 65 -6 l46 -6 17 129 c9 70 17 162 19 203 l2 75 -136 3 c-74 1 -138
-1 -142 -4z"/>
<path d="M4156 5479 c-10 -96 -6 -247 7 -319 13 -64 13 -64 14 86 0 84 5 159
10 169 8 14 16 9 56 -35 26 -28 47 -61 47 -73 0 -24 43 -81 54 -70 3 3 6 -3 6
-15 0 -13 11 -26 30 -36 29 -14 30 -14 30 9 0 13 5 27 10 30 6 3 10 20 10 37
0 26 -18 48 -126 152 -70 66 -130 122 -134 124 -4 1 -10 -25 -14 -59z"/>
<path d="M7170 5477 c0 -19 58 -72 105 -95 22 -11 67 -28 100 -37 33 -9 79
-23 101 -30 23 -8 75 -17 115 -21 83 -7 320 11 369 27 34 12 50 41 50 90 0 25
-3 29 -19 24 -65 -20 -176 -35 -306 -41 -234 -10 -396 16 -471 75 -31 24 -44
27 -44 8z"/>
<path d="M9337 5305 c-4 -9 -7 -29 -7 -45 0 -27 3 -29 58 -36 54 -6 72 -16 72
-39 0 -5 -5 -3 -11 5 -9 13 -10 13 -6 0 2 -8 11 -14 20 -12 8 1 18 -6 22 -17
3 -10 17 -22 30 -25 14 -4 25 -12 25 -18 0 -7 9 -2 21 11 20 21 22 21 34 4 7
-10 11 -21 9 -25 -3 -5 2 -8 11 -8 13 0 15 6 10 30 -6 26 -4 30 14 30 18 0 19
-3 9 -25 -6 -14 -8 -28 -5 -32 11 -11 35 29 29 49 -2 11 1 18 9 19 8 1 3 5
-11 9 l-25 8 27 1 c25 1 27 -1 22 -29 -6 -25 -3 -30 14 -30 11 0 25 7 32 15 9
11 10 15 0 15 -8 0 -10 17 -4 67 7 65 6 66 -16 60 -12 -3 -70 0 -129 8 -214
28 -247 29 -254 10z"/>
<path d="M9814 5263 c-5 -20 -9 -21 -28 -11 -18 10 -19 9 -8 -4 18 -22 10 -73
-11 -72 -14 1 -14 -1 1 -25 9 -14 22 -30 29 -34 7 -4 13 -13 13 -20 0 -7 -4
-6 -10 3 -8 13 -10 13 -10 -2 0 -9 5 -20 10 -23 6 -3 11 -23 11 -43 2 -30 3
-32 6 -9 2 15 8 27 12 27 5 0 6 -11 3 -25 -3 -16 0 -25 8 -25 10 0 10 -3 1
-14 -9 -10 -9 -16 -1 -21 6 -4 9 -13 6 -20 -5 -15 6 -20 64 -30 l35 -6 19 63
c10 35 25 88 32 118 7 30 17 75 23 99 7 24 9 46 7 49 -3 3 -47 9 -98 15 -51 6
-96 15 -101 21 -4 7 -9 2 -13 -11z"/>
<path d="M3998 5128 c-4 -59 -15 -97 -56 -193 -60 -144 -99 -268 -108 -351 -7
-65 10 -174 28 -174 6 0 8 9 5 20 -15 59 36 256 117 450 19 47 38 108 42 137
7 59 -3 183 -15 183 -5 0 -11 -33 -13 -72z"/>
<path d="M5495 5159 c-16 -16 -35 -29 -41 -29 -22 0 -42 -36 -46 -85 -6 -69
-32 -118 -101 -191 -94 -101 -181 -119 -284 -58 l-43 25 -9 -23 c-5 -13 -12
-38 -16 -55 -6 -32 -27 -44 -40 -23 -4 6 -11 8 -16 5 -5 -4 -9 1 -9 9 0 24
-17 19 -24 -6 -7 -30 29 -104 61 -125 33 -22 183 -30 264 -14 34 7 77 21 97
33 50 27 131 112 166 173 40 70 86 224 75 252 -6 16 -2 36 12 68 33 75 9 98
-46 44z"/>
<path d="M6295 5131 c17 -54 36 -203 47 -372 10 -161 10 -208 -3 -310 -14
-118 -12 -139 17 -139 56 0 29 560 -38 778 -10 34 -21 62 -24 62 -3 0 -3 -8 1
-19z"/>
<path d="M4116 4995 c12 -78 77 -251 144 -384 38 -75 74 -149 81 -166 10 -24
13 -26 17 -11 6 28 -33 126 -109 276 -38 74 -85 178 -104 230 -23 62 -33 81
-29 55z"/>
<path d="M8985 4964 c-145 -133 -343 -244 -645 -363 -102 -41 -207 -85 -235
-99 -30 -15 -45 -19 -37 -10 6 8 45 29 84 47 134 59 135 60 130 87 -5 25 -17
26 -67 4 -205 -90 -314 -159 -426 -270 -82 -80 -122 -140 -94 -140 20 0 19
-22 -4 -62 -31 -53 -46 -149 -29 -184 18 -39 31 -36 40 9 14 66 46 114 136
204 123 124 263 218 412 276 36 14 124 48 196 76 231 90 428 204 561 326 40
36 67 54 75 49 7 -4 63 -46 123 -93 123 -95 355 -322 460 -449 57 -70 70 -81
78 -67 16 29 -98 175 -303 389 -100 105 -369 328 -391 326 -2 -1 -31 -26 -64
-56z"/>
<path d="M9350 4909 c25 -22 55 -47 66 -55 20 -14 208 -64 239 -64 14 0 43 75
33 85 -2 3 -22 7 -44 10 -21 3 -99 18 -172 35 -73 16 -141 30 -150 30 -11 0
-2 -14 28 -41z"/>
<path d="M9796 4818 c-10 -40 -7 -68 9 -68 17 0 33 -28 30 -52 -2 -9 3 -19 11
-22 7 -3 11 -12 8 -21 -3 -8 -1 -15 5 -15 6 0 11 4 11 10 0 5 14 39 31 75 17
36 29 71 26 78 -4 11 -87 37 -117 37 -4 0 -10 -10 -14 -22z"/>
<path d="M4594 4608 c2 -9 1 -18 -3 -20 -4 -2 -20 -111 -35 -244 -29 -262 -48
-383 -96 -629 -41 -210 -52 -451 -26 -567 19 -85 66 -171 129 -236 48 -50 100
-84 58 -39 -13 15 -21 33 -18 41 4 9 2 18 -4 21 -5 4 -7 11 -4 16 4 5 1 9 -5
9 -6 0 -8 5 -5 10 3 6 2 10 -3 10 -6 0 -8 9 -5 20 3 11 1 20 -5 20 -7 0 -9 27
-7 78 5 88 17 362 16 377 0 6 -2 24 -3 40 -3 53 2 96 11 91 8 -5 6 47 -4 72
-3 7 -1 11 4 8 4 -3 11 43 15 102 4 59 8 115 9 125 1 9 5 17 10 17 4 0 7 8 6
18 -2 9 1 42 6 72 10 65 13 99 20 204 2 44 8 82 12 85 13 10 9 135 -4 149 -7
7 -13 27 -13 43 0 16 -14 50 -31 77 -17 26 -28 39 -25 30z"/>
<path d="M7462 4345 c-45 -38 -72 -101 -72 -168 0 -59 18 -162 27 -153 3 3 7
32 9 65 3 64 26 126 75 202 16 25 29 53 29 62 0 25 -34 21 -68 -8z"/>
<path d="M9613 4210 c-10 -10 -27 -30 -39 -43 -11 -13 -24 -35 -27 -49 -4 -15
-14 -33 -22 -41 -8 -8 -12 -17 -9 -20 8 -8 -25 -67 -37 -67 -6 0 -9 -6 -6 -14
3 -8 -3 -22 -14 -32 -10 -9 -18 -22 -17 -28 2 -18 -21 -66 -32 -66 -5 0 -12
-11 -16 -25 -3 -14 -11 -22 -17 -18 -6 3 -7 1 -3 -5 4 -6 -6 -25 -21 -43 -15
-17 -27 -33 -25 -36 2 -2 -6 -13 -18 -23 -11 -10 -42 -54 -68 -97 -26 -44 -51
-82 -57 -84 -5 -2 -9 -8 -7 -13 4 -12 -19 -37 -28 -31 -5 3 -12 0 -16 -6 -4
-8 -3 -9 4 -5 20 12 13 -10 -8 -29 -11 -10 -20 -15 -20 -10 0 4 -7 2 -15 -5
-8 -7 -13 -15 -11 -19 7 -11 -12 -36 -26 -36 -7 -1 -12 -7 -10 -14 2 -8 -6
-20 -18 -28 -11 -8 -20 -18 -20 -23 0 -5 -36 -45 -80 -88 -44 -43 -78 -81 -75
-84 3 -3 -5 -13 -17 -24 -14 -12 -18 -14 -13 -4 4 8 -1 6 -12 -5 -11 -11 -18
-24 -15 -29 3 -5 0 -6 -6 -2 -6 3 -41 -24 -78 -61 -36 -38 -72 -67 -79 -65 -7
1 -31 -16 -53 -37 -23 -22 -55 -47 -71 -56 -17 -8 -30 -21 -28 -28 1 -6 -4
-11 -10 -9 -7 1 -13 -5 -13 -14 0 -9 -7 -14 -17 -12 -11 2 -37 -14 -63 -39
-24 -24 -50 -43 -56 -43 -13 0 -115 -68 -125 -82 -3 -6 -9 -9 -13 -8 -4 1 -29
-11 -54 -28 -26 -16 -67 -40 -92 -52 -25 -12 -51 -27 -59 -33 -7 -6 -19 -12
-25 -13 -7 -1 -30 -13 -52 -26 -21 -13 -55 -31 -74 -40 -19 -8 -63 -30 -97
-47 -34 -17 -69 -31 -77 -31 -8 0 -16 -4 -18 -9 -1 -5 -48 -25 -103 -46 -55
-20 -106 -42 -114 -48 -8 -7 -15 -10 -15 -8 -1 2 -35 -7 -76 -20 -41 -12 -77
-23 -80 -24 -59 -16 -105 -30 -147 -46 -29 -10 -53 -17 -53 -14 0 2 -18 -2
-41 -10 -23 -8 -45 -13 -49 -10 -5 3 -11 1 -14 -4 -6 -9 -111 -28 -128 -23 -5
1 -8 -2 -8 -6 0 -13 -34 -11 -42 2 -5 8 -8 7 -8 -1 0 -7 -8 -13 -18 -13 -10 0
-21 -3 -25 -6 -3 -4 -34 -8 -69 -11 -35 -2 -78 -8 -96 -13 -50 -13 -185 -3
-195 15 -4 9 -12 13 -18 10 -17 -11 -9 25 10 46 10 11 17 31 15 44 -1 14 2 25
7 25 6 0 8 4 5 9 -3 5 0 14 8 20 8 7 17 24 21 38 3 15 15 33 26 41 10 7 19 19
19 25 0 7 11 22 25 35 13 13 24 27 22 30 -1 4 20 41 47 82 27 41 48 76 48 77
-1 2 14 30 33 64 19 33 35 66 35 73 0 7 4 16 10 22 5 5 21 41 36 79 24 64 34
124 48 285 3 31 10 78 16 105 13 56 17 303 6 353 -6 27 -10 31 -22 21 -11 -9
-14 -7 -14 10 0 11 5 21 11 21 8 0 7 5 -2 16 -7 9 -15 28 -16 43 -5 35 -43
164 -48 159 -2 -2 1 -37 7 -78 14 -103 4 -243 -32 -449 -49 -281 -127 -487
-258 -681 -47 -69 -124 -179 -172 -245 -134 -183 -240 -369 -240 -417 0 -6 57
-8 153 -4 83 3 166 6 182 6 17 1 93 8 170 16 412 44 818 153 1205 325 720 320
1351 872 1773 1549 94 151 199 347 211 394 6 24 4 27 -9 22 -9 -3 -13 -2 -10
4 12 19 -35 10 -52 -10z"/>
<path d="M7351 3958 c-1 -101 15 -152 63 -196 55 -51 122 -76 181 -70 25 3 47
2 50 -2 7 -11 102 7 127 24 12 9 38 16 58 16 41 0 100 33 100 55 0 13 -9 15
-48 9 -52 -7 -122 15 -122 38 0 9 -3 9 -10 -2 -5 -8 -10 -10 -10 -4 0 7 -23
26 -50 44 -28 18 -59 43 -69 56 -21 27 -31 22 -31 -17 0 -43 37 -77 95 -87
l50 -9 -37 -8 c-21 -4 -38 -11 -38 -15 0 -15 -73 1 -128 27 -71 34 -127 88
-157 148 l-24 50 0 -57z"/>
<path d="M4267 3893 c-3 -39 -13 -85 -21 -101 -19 -38 -72 -82 -97 -82 -10 0
-19 -5 -19 -10 0 -17 50 -31 94 -28 39 3 42 5 59 53 18 51 17 142 -1 210 -7
26 -9 19 -15 -42z"/>
<path d="M7194 3859 c9 -67 42 -152 72 -189 14 -16 23 -34 20 -39 -3 -5 0 -8
7 -8 28 1 76 -16 81 -30 4 -9 2 -11 -6 -7 -7 4 -8 3 -4 -4 4 -7 18 -12 30 -12
13 0 43 -7 66 -15 60 -21 118 -19 170 8 62 31 60 53 -5 50 -31 -2 -45 0 -36 6
11 7 11 9 0 14 -8 3 -1 4 15 4 20 -2 29 3 31 16 2 9 -3 17 -11 17 -8 0 -14 -4
-14 -9 0 -14 -97 -30 -110 -17 -5 5 -10 6 -10 2 0 -4 -26 7 -57 25 -32 18 -79
43 -105 55 -54 27 -92 72 -114 138 -9 25 -18 46 -21 46 -3 0 -3 -23 1 -51z"/>
<path d="M278 6681 l-28 -26 0 -382 0 -382 28 -21 27 -22 6 99 c8 125 8 448 0
624 l-6 136 -27 -26z"/>
<path d="M10515 6630 c2 -19 13 -102 24 -185 213 -1581 -449 -3156 -1734
-4124 -680 -513 -1528 -833 -2389 -901 -165 -13 -576 -13 -742 0 -744 59
-1489 311 -2114 718 -912 592 -1565 1461 -1869 2484 -135 457 -180 749 -183
1186 -1 174 -4 237 -14 250 -12 16 -13 15 -14 -6 0 -13 -4 -20 -10 -17 -5 3
-10 0 -10 -8 0 -8 7 -17 15 -21 11 -4 15 -19 13 -58 l-1 -53 -7 45 -7 45 -1
-42 c-2 -42 -15 -64 -26 -41 -4 7 -4 -9 -1 -36 3 -27 5 -61 6 -75 0 -23 1 -24
9 -6 5 12 7 -24 7 -90 -1 -85 -5 -114 -17 -127 -12 -13 -16 -36 -15 -84 0 -36
-3 -68 -8 -71 -5 -3 -5 -8 1 -12 10 -6 15 -37 13 -79 -1 -13 -5 -21 -9 -18 -5
3 -9 -1 -9 -9 0 -10 4 -12 12 -5 7 5 14 7 17 4 9 -8 -3 -45 -12 -39 -5 3 -6
-5 -3 -16 4 -14 0 -27 -11 -35 -10 -7 -15 -17 -12 -23 4 -5 2 -12 -4 -16 -5
-3 -8 -16 -5 -28 2 -12 6 -35 9 -52 11 -75 19 -95 36 -95 10 0 20 -6 23 -14 4
-9 -2 -12 -18 -10 -21 2 -23 -1 -19 -29 3 -18 6 -40 7 -49 1 -10 5 -18 9 -18
4 0 6 -10 6 -22 -2 -31 13 -99 21 -94 3 2 7 -17 8 -42 2 -26 7 -48 13 -50 13
-5 13 -32 0 -32 -5 0 -10 -7 -10 -15 0 -8 4 -15 8 -15 13 0 39 -72 38 -103 -1
-15 1 -27 5 -27 10 0 51 -139 44 -150 -3 -5 1 -13 10 -17 8 -5 16 -25 18 -45
2 -20 8 -42 15 -50 6 -8 12 -31 14 -51 1 -21 12 -48 25 -64 14 -16 21 -33 17
-45 -3 -11 1 -20 11 -24 9 -4 13 -13 10 -24 -3 -11 1 -20 10 -24 9 -3 14 -10
11 -15 -4 -5 -2 -22 4 -38 l10 -28 -22 29 c-20 26 -37 64 -82 184 -7 18 -16
29 -19 25 -12 -12 -7 -54 7 -59 12 -5 27 -37 30 -66 1 -3 4 -10 9 -14 4 -4 7
-16 7 -26 0 -10 5 -18 11 -18 5 0 8 -4 5 -9 -9 -15 13 -63 25 -56 6 4 9 1 8
-6 -2 -14 20 -70 32 -79 6 -5 33 -78 34 -92 0 -4 8 -17 17 -28 10 -11 18 -29
18 -39 0 -10 6 -24 14 -30 13 -11 31 -58 28 -73 -2 -8 14 -12 31 -9 11 2 9
-17 -3 -24 -6 -3 -10 -12 -10 -18 0 -9 3 -8 8 1 6 9 12 5 22 -15 8 -16 20 -36
28 -45 8 -9 11 -22 7 -28 -3 -6 -1 -9 7 -8 7 2 14 -8 16 -20 2 -13 17 -36 33
-50 16 -15 30 -39 31 -54 1 -15 6 -24 10 -22 4 3 15 -8 24 -23 10 -15 23 -33
30 -39 7 -6 14 -17 16 -25 2 -7 10 -20 18 -27 10 -9 11 -11 1 -6 -9 4 -12 2
-9 -7 3 -8 9 -14 15 -14 13 0 44 -32 47 -48 1 -7 14 -26 29 -43 15 -16 25 -34
23 -41 -3 -6 2 -17 9 -23 8 -7 12 -16 9 -21 -3 -5 3 -9 14 -9 20 0 55 -32 50
-46 -4 -14 22 -54 35 -54 17 0 63 -50 72 -79 7 -24 65 -86 123 -131 18 -14 41
-42 53 -63 11 -21 30 -43 43 -49 13 -5 29 -21 35 -34 6 -13 16 -24 22 -24 6 0
54 -42 107 -93 54 -52 118 -113 144 -137 27 -23 48 -48 48 -55 0 -20 27 -38
35 -25 5 8 19 1 41 -21 18 -18 31 -36 28 -40 -3 -5 1 -6 8 -4 8 3 22 -2 33
-11 11 -8 14 -12 6 -8 -9 5 -12 3 -7 -4 4 -7 13 -12 21 -12 7 0 20 -6 27 -13
7 -7 21 -16 31 -20 11 -4 21 -16 24 -28 4 -14 8 -17 13 -9 5 8 17 0 35 -24 17
-22 34 -35 42 -32 8 3 16 -1 19 -9 4 -8 10 -15 15 -15 5 0 18 -9 29 -20 12
-12 26 -18 32 -14 6 4 8 3 5 -2 -3 -6 13 -21 36 -35 23 -13 51 -30 62 -37 11
-6 30 -17 43 -22 14 -6 20 -15 16 -22 -4 -6 -3 -8 4 -4 6 3 17 1 24 -6 21 -19
78 -48 94 -48 8 0 14 -4 14 -10 0 -5 9 -10 20 -10 11 0 20 -4 20 -8 0 -13 50
-33 62 -26 6 4 8 2 5 -3 -4 -6 3 -13 14 -16 12 -3 19 -10 16 -14 -3 -5 4 -10
16 -10 11 -1 25 -9 29 -18 5 -8 18 -15 28 -15 11 0 20 -4 20 -10 0 -5 7 -10
15 -10 8 0 44 -14 80 -31 36 -17 69 -28 74 -25 5 3 11 -1 15 -9 3 -8 15 -15
26 -15 11 0 23 -7 26 -15 4 -8 17 -15 30 -15 13 0 24 -4 24 -10 0 -5 12 -10
27 -10 36 0 165 -48 180 -67 6 -8 20 -13 31 -11 10 2 26 -3 35 -11 11 -8 17
-9 17 -2 0 11 41 -3 70 -24 8 -6 28 -12 45 -13 16 -1 33 -8 37 -16 5 -9 25
-14 53 -14 51 0 73 -6 134 -34 30 -13 55 -18 77 -14 27 6 34 3 39 -14 6 -18
14 -21 50 -19 24 2 49 -2 57 -8 7 -6 52 -12 101 -12 93 -1 119 -7 96 -23 -9
-6 4 -7 38 -3 40 4 59 2 78 -11 21 -14 39 -15 99 -10 53 5 75 3 78 -5 8 -23
809 -41 824 -18 3 5 30 9 60 9 30 0 54 4 54 8 0 4 17 9 38 10 20 1 71 5 112 8
41 3 89 7 106 8 17 0 37 6 45 13 8 6 38 13 67 14 29 2 52 6 52 11 0 4 20 8 44
8 25 0 48 5 51 10 3 6 12 10 18 10 7 0 6 -4 -3 -10 -13 -9 -13 -10 1 -10 8 0
20 5 25 10 10 10 57 21 154 37 19 3 44 12 55 19 11 7 43 16 70 19 28 4 61 13
75 20 31 17 61 27 80 30 33 3 81 18 86 26 3 5 16 9 29 9 13 0 27 5 30 10 3 6
17 10 30 10 13 0 27 5 30 10 3 6 18 10 33 10 21 0 24 2 12 10 -13 8 -12 10 5
11 11 1 26 2 33 2 6 -1 12 3 12 8 0 5 11 9 24 9 13 0 29 7 36 15 7 8 16 13 20
10 10 -6 73 25 83 42 10 17 30 17 22 1 -4 -7 -1 -6 7 3 18 22 58 42 58 29 0
-18 18 -11 25 11 4 12 12 18 21 15 17 -6 46 3 40 13 -3 4 7 8 22 9 36 3 71 20
109 56 18 16 36 27 39 23 4 -4 13 2 21 12 8 12 20 17 32 14 10 -3 22 1 26 8 6
8 4 10 -5 4 -9 -6 -11 -4 -6 4 5 7 14 10 20 8 7 -3 18 4 24 14 7 10 17 19 23
19 5 0 7 -5 3 -11 -4 -8 0 -8 15 0 11 7 21 14 21 17 0 3 -5 2 -11 -2 -7 -4
-10 -1 -7 7 3 8 13 14 24 14 10 0 27 7 36 15 36 32 48 40 61 40 18 0 39 24 30
33 -3 4 -1 8 5 8 26 3 31 4 38 11 4 5 16 8 26 8 11 0 17 4 14 9 -3 4 12 16 34
26 22 10 37 21 34 26 -2 5 10 12 28 17 22 6 33 15 32 25 -1 9 2 14 7 11 5 -3
13 5 18 18 6 13 10 17 10 9 1 -11 4 -11 16 -1 8 7 15 18 15 24 0 7 15 18 34
26 19 7 39 24 45 37 7 15 19 23 37 23 18 0 25 4 21 14 -3 7 0 19 6 25 9 9 8
11 -3 8 -8 -2 -12 -2 -7 0 4 3 4 10 0 16 -4 7 0 6 10 -1 14 -12 21 -10 52 14
20 15 35 34 33 43 -2 9 14 33 34 53 28 29 38 34 42 22 3 -8 2 -13 -3 -10 -4 3
-17 -7 -28 -22 -37 -52 -36 -57 5 -18 22 22 39 43 37 47 -5 8 25 35 34 32 3
-2 6 3 6 10 0 20 67 87 87 87 9 0 20 5 24 12 4 7 3 8 -4 4 -26 -16 -10 9 43
69 68 77 87 95 101 95 14 0 15 -2 3 -17 -8 -10 -18 -21 -24 -25 -7 -5 -7 -8 0
-8 6 0 23 16 38 35 15 19 24 35 18 35 -5 0 -12 -6 -14 -12 -4 -9 -6 -8 -6 2 0
8 36 53 80 100 44 47 101 112 125 145 25 33 59 76 77 96 18 20 43 53 57 74 14
20 40 54 58 75 17 20 32 41 32 46 0 4 8 17 19 28 10 12 31 44 46 71 15 28 38
64 51 82 13 17 24 39 24 47 0 9 4 16 10 16 5 0 17 17 25 37 9 21 24 47 33 58
24 29 42 62 42 80 0 8 4 15 9 15 11 0 41 56 41 75 0 7 7 18 15 25 9 7 14 19
11 26 -3 7 2 15 10 18 8 3 14 12 14 21 0 8 7 15 15 15 8 0 12 6 9 14 -3 8 9
45 26 81 18 37 33 72 34 79 1 6 7 21 14 33 7 12 12 29 12 37 0 9 9 30 20 48
11 18 20 39 20 46 0 7 7 29 16 50 10 20 18 46 19 57 2 11 7 31 12 45 6 14 8
31 6 37 -3 7 2 16 11 19 9 3 16 16 16 28 0 13 3 26 8 30 4 4 7 11 8 14 0 4 4
15 8 25 5 9 6 24 2 32 -3 8 -1 15 5 15 6 0 7 5 4 10 -4 6 -2 17 4 24 6 7 12
28 15 48 2 20 9 45 15 56 6 12 11 35 11 52 0 21 4 29 12 24 6 -4 8 -3 5 3 -4
6 1 44 9 84 9 41 18 97 21 124 3 28 9 55 13 60 5 6 11 42 15 80 11 99 13 119
16 125 1 3 3 10 4 15 2 6 3 12 4 15 1 3 3 34 6 70 2 36 8 86 14 110 6 25 10
78 9 118 -2 39 0 72 3 72 3 0 6 98 5 218 -1 170 -4 220 -15 232 -9 10 -10 15
-2 18 12 4 16 62 3 62 -4 0 -9 11 -10 25 -1 14 3 25 9 25 5 0 4 6 -3 14 -23
26 -28 2 -17 -93 6 -51 8 -96 5 -99 -3 -3 -6 5 -6 17 0 12 -4 30 -9 39 -4 9
-11 62 -13 117 -4 77 -3 94 5 73 16 -43 24 -33 20 25 -1 28 -3 61 -3 72 -1 11
-6 23 -12 26 -9 6 -8 12 3 25 9 11 9 15 2 10 -8 -4 -13 -2 -14 6 0 7 -1 32 -2
55 -1 23 -5 45 -9 48 -7 7 -4 -62 7 -151 6 -51 5 -61 -8 -61 -13 0 -14 4 -5
20 8 16 7 23 -3 31 -18 14 -21 43 -9 79 5 15 6 27 2 27 -4 0 -12 11 -19 25 -6
14 -7 25 -2 25 5 0 9 7 9 16 0 8 -4 13 -9 10 -8 -6 -25 30 -22 47 1 5 -3 6 -9
2 -6 -3 -8 -10 -6 -14 3 -4 1 -13 -5 -21 -6 -11 -8 -5 -5 18 2 22 -1 35 -10
39 -15 6 -19 29 -5 35 4 2 0 11 -9 21 -16 16 -17 15 -12 -29 3 -33 1 -45 -7
-40 -13 8 -15 -6 -3 -19 5 -6 6 -23 3 -40 -5 -24 -9 -14 -19 50 -7 44 -17 94
-22 110 l-10 30 5 -35z"/>
<path d="M10443 2033 c-150 -150 -277 -273 -281 -273 -5 0 -14 -11 -20 -24 -6
-13 -19 -27 -30 -30 -10 -4 -24 -18 -30 -31 -10 -22 -9 -25 9 -25 14 0 99 77
247 224 125 124 262 259 305 301 64 63 78 82 75 103 -3 24 -29 1 -275 -245z"/>
<path d="M1930 2010 c0 -16 50 -73 169 -191 139 -140 173 -169 197 -169 25 0
10 18 -152 178 -222 218 -214 211 -214 182z"/>
<path d="M9758 1480 c-17 -24 -29 -30 -58 -30 -28 0 -44 -8 -71 -36 -28 -29
-40 -35 -67 -32 -28 3 -38 -2 -62 -29 -23 -25 -37 -33 -64 -33 -26 0 -40 -7
-56 -27 -16 -20 -33 -29 -67 -33 -36 -4 -51 -12 -71 -37 l-25 -33 64 0 c61 1
65 2 84 33 17 27 27 32 65 35 37 2 49 8 65 32 16 25 27 30 58 30 32 0 44 6 70
35 24 28 38 35 67 35 30 0 44 9 95 60 l59 60 -32 0 c-23 0 -37 -8 -54 -30z"/>
</g>
</svg>
